<?xml version="1.0" standalone="no"?>
<!DOCTYPE svg PUBLIC "-//W3C//DTD SVG 1.1//EN" "http://www.w3.org/Graphics/SVG/1.1/DTD/svg11.dtd">
<svg xmlns="http://www.w3.org/2000/svg" xmlns:xlink="http://www.w3.org/1999/xlink" version="1.1" id="Layer_1" x="0px" y="0px" width="519.4019775390625" height="201.25" viewBox="0 0 519.402 201.25" enable-background="new 0 0 519.402 201.25" xml:space="preserve">
<rect fill="none" width="519.402" height="201.25"/>
<g>
	<path fill="#FAA61A" d="M148.301,158.018c0,0.698,0.5,1.198,1.2,1.198l0,0c0.8-0.101,1.4-0.698,2-1.899   c0.6-1.197,1.2-2.799,2.1-4.601s1.4-2.5,2.1-3.802c-0.9,0.302-1.8,0.302-2.6,0.104c-1.1-0.201-2-0.701-2.7-1.604L148.301,158.018   L148.301,158.018z M59.901,158.018l-2.1-10.602c-0.7,0.801-1.6,1.4-2.7,1.602c-0.9,0.199-1.8,0.199-2.6-0.102   c0.7,1.301,1.2,2.201,2.1,3.801c0.9,1.602,1.5,3.4,2.1,4.602c0.6,1.199,1.2,1.803,2,1.898   C59.301,159.217,59.901,158.618,59.901,158.018L59.901,158.018L59.901,158.018z M144.901,121.917c3.7,8.801-15.8,31-40.8,31   c-24.8,0-44.5-22.199-40.8-31c-2.5,1.603-5.9,3.899-7,4.801c-5.4,4.699,4.2,19,18,27.699c8.9,5.701,19.3,8.701,29.8,8.399   c10.6,0.302,21-2.602,29.8-8.399c13.8-8.799,23.4-23,17.9-27.699C150.901,125.717,147.401,123.518,144.901,121.917L144.901,121.917   z M69.901,136.316c1.7,2,3.7,3.898,5.7,5.5c0.4,0.302,0.9,0.701,1.4,1.101c0.2-0.199,0.5-0.601,0.8-1c0.7-1,1.4-2.101,2-3.199   c0.9-1.698,1.5-3.6,1.9-5.6c-1.7-1.601-4-4-4-4s-1.7-2-3.4-4c0.3,1.899,0.1,3.899-0.6,5.698   C72.801,132.917,71.501,134.717,69.901,136.316L69.901,136.316z M65.702,148.917c-1.1-1-2.2-2-3.2-3.101   c-1.2-1.299-2.4-2.602-3.4-4c-0.8,0.101-1.9,0.201-3,0.398c-1.2,0.102-2.3,0.602-3.3,1.303c-1.5,1.197-1.8,2.5-1.2,3.697   c0.6,1.198,2,1.303,3.4,1.102c1.2-0.198,2.2-0.899,2.7-2.102l0.6-1.101l1.3,6.5c1.3-0.103,2.6-0.302,3.8-0.701   c1.1-0.299,2.3-0.698,3.4-1.101L65.702,148.917L65.702,148.917z M149.202,141.816c-2.3,2.898-4.8,5.601-7.6,7.898   c1.1,0.399,2.2,0.803,3.3,1.102c1.2,0.398,2.5,0.601,3.8,0.701l1.3-6.5l0.6,1.101c0.5,1.1,1.5,1.899,2.7,2.1   c1.4,0.302,2.9,0.103,3.4-1.1c0.5-1.203,0.3-2.4-1.2-3.701c-1-0.699-2.1-1.199-3.3-1.299   C151.001,141.917,150.001,141.917,149.202,141.816z M134.501,130.816c-0.7-1.799-0.9-3.799-0.6-5.698c-1.7,2.1-3.6,4-3.6,4   s-2.2,2.299-3.9,3.799c0.3,2,0.9,3.899,1.9,5.701c0.6,1.1,1.3,2.198,2,3.198c0.3,0.398,0.7,0.898,0.8,1.101   c2.6-1.897,4.9-4,7-6.397C136.602,134.816,135.401,132.917,134.501,130.816z"/>
	<polygon fill="#231F20" points="72.602,151.118 72.501,147.417 75.901,146.618 74.801,145.816 71.901,146.518 71.901,146.518    73.301,144.618 72.401,143.917 69.001,148.417 70.001,149.118 71.401,147.217 71.401,147.217 71.501,150.217  "/>
	<path fill="#231F20" d="M79.702,152.316c0.8-1.198,0.5-2.899-0.7-3.698c-0.1-0.101-0.2-0.101-0.3-0.201   c-0.7-0.397-1.5-0.5-2.2-0.397c-0.7,0.198-1.4,0.698-1.8,1.397c-0.4,0.701-0.6,1.5-0.3,2.301c0.5,1.5,2.1,2.302,3.6,2   C78.702,153.417,79.301,152.917,79.702,152.316L79.702,152.316z M78.711,152.064c-0.103,0.14-0.23,0.263-0.383,0.359   c-0.235,0.151-0.474,0.252-0.751,0.305c-0.535,0.097-1.101-0.024-1.538-0.354c-0.8-0.698-0.9-1.899-0.3-2.698   c0.6-0.701,1.6-0.898,2.4-0.398c0.415,0.261,0.738,0.718,0.85,1.188C79.121,151.021,79.04,151.625,78.711,152.064z"/>
	<polygon fill="#231F20" points="89.001,153.118 84.702,151.518 84.401,152.417 86.001,152.917 84.401,157.316 85.501,157.717    87.001,153.417 88.501,153.917  "/>
	<polygon fill="#231F20" points="92.301,159.717 92.501,158.816 90.501,158.316 90.901,156.917 92.602,157.417 92.901,156.417    91.102,156.018 91.501,154.717 93.202,155.217 93.702,154.316 90.602,153.518 89.202,158.917  "/>
	<polygon fill="#231F20" points="102.202,155.518 97.602,155.018 97.501,156.018 99.202,156.118 98.702,160.717 99.801,160.917    100.301,156.316 101.801,156.417  "/>
	<path fill="#231F20" d="M108.401,161.018l-2.4-5.604h-0.9l-2.1,5.604h1.1l0.5-1.398h1.9l0.6,1.299L108.401,161.018L108.401,161.018   z M106.301,158.717h-1.2l0.4-1.1c0.1-0.201,0.1-0.4,0.2-0.701l0,0c0.1,0.201,0.1,0.5,0.2,0.701L106.301,158.717L106.301,158.717z"/>
	<path fill="#231F20" d="M115.602,160.018l-0.9-5.5l-1.1,0.198l0.4,2.802c0,0.198,0.1,0.602,0.2,0.799l0,0   c-0.2-0.197-0.4-0.398-0.6-0.601l-2.8-2.601l-1.2,0.199l0.9,5.5l1.1-0.199l-0.5-3c0-0.201-0.1-0.602-0.1-0.801l0,0   c0.2,0.199,0.4,0.396,0.6,0.6l2.9,2.701L115.602,160.018L115.602,160.018z"/>
	<path fill="#231F20" d="M122.801,157.518l-0.7-2.302l-1.1,0.302l0.5,1.799c-0.2,0.201-0.5,0.303-0.8,0.399   c-1,0.302-2-0.198-2.3-1.198v-0.102c-0.3-0.898,0.1-2,1.1-2.299c0.1,0,0.2-0.102,0.3-0.102c0.5-0.104,1-0.199,1.6-0.104l-0.3-1   c-0.6,0-1.1,0-1.7,0.201c-1.6,0.396-2.6,1.896-2.2,3.5c0,0.101,0,0.101,0,0.197c0.4,1.398,1.9,2.303,3.3,1.898   c0.1,0,0.2-0.1,0.3-0.1C121.501,158.417,122.202,158.018,122.801,157.518L122.801,157.518z"/>
	<path fill="#231F20" d="M129.702,154.917l-4.4-4.101l-0.8,0.399l0.4,6l1-0.5l-0.1-1.5l1.7-0.801l1.1,1L129.702,154.917   L129.702,154.917z M126.801,153.717l-1.1,0.5l-0.1-1.199c0-0.199,0-0.5-0.1-0.699l0,0c0.1,0.199,0.3,0.398,0.5,0.5L126.801,153.717   L126.801,153.717z"/>
	<polygon fill="#231F20" points="131.602,147.316 127.702,149.717 128.202,150.518 129.602,149.717 132.001,153.618    133.001,153.018 130.602,149.018 131.801,148.217  "/>
	<path fill="#231F20" d="M139.401,148.217l-5.2-3l-0.7,0.5l1.7,5.801l0.9-0.699l-0.4-1.398l1.5-1.197l1.3,0.697L139.401,148.217   L139.401,148.217z M136.301,147.717l-1,0.801l-0.3-1.102c-0.1-0.199-0.1-0.398-0.2-0.699l0,0c0.2,0.199,0.4,0.301,0.6,0.4   L136.301,147.717L136.301,147.717z"/>
	<path fill="#231F20" d="M148.301,158.018c0,0.698,0.5,1.198,1.2,1.198l0,0c0.8-0.101,1.4-0.698,2-1.899   c0.6-1.197,1.2-2.799,2.1-4.601s1.4-2.5,2.1-3.802c-0.9,0.302-1.8,0.302-2.6,0.104c-1.1-0.201-2-0.701-2.7-1.604L148.301,158.018   L148.301,158.018z M59.901,158.018l-2.1-10.602c-0.7,0.801-1.6,1.4-2.7,1.602c-0.9,0.199-1.8,0.199-2.6-0.102   c0.7,1.301,1.2,2.201,2.1,3.801c0.9,1.602,1.5,3.4,2.1,4.602c0.6,1.199,1.2,1.803,2,1.898   C59.301,159.217,59.901,158.618,59.901,158.018L59.901,158.018L59.901,158.018z M69.901,136.316c1.7,2,3.7,3.898,5.7,5.5   c0.4,0.302,0.9,0.701,1.4,1.101c0.2-0.199,0.5-0.601,0.8-1c0.7-1,1.4-2.101,2-3.199c0.9-1.698,1.5-3.6,1.9-5.6c-1.7-1.601-4-4-4-4   s-1.7-2-3.4-4c0.3,1.899,0.1,3.899-0.6,5.698C72.801,132.917,71.501,134.717,69.901,136.316L69.901,136.316z M65.702,148.917   c-1.1-1-2.2-2-3.2-3.101c-1.2-1.299-2.4-2.602-3.4-4c-0.8,0.101-1.9,0.201-3,0.398c-1.2,0.102-2.3,0.602-3.3,1.303   c-1.5,1.197-1.8,2.5-1.2,3.697c0.6,1.198,2,1.303,3.4,1.102c1.2-0.198,2.2-0.899,2.7-2.102l0.6-1.101l1.3,6.5   c1.3-0.103,2.6-0.302,3.8-0.701c1.1-0.299,2.3-0.698,3.4-1.101L65.702,148.917L65.702,148.917z M149.202,141.816   c-2.3,2.898-4.8,5.601-7.6,7.898c1.1,0.399,2.2,0.803,3.3,1.102c1.2,0.398,2.5,0.601,3.8,0.701l1.3-6.5l0.6,1.101   c0.5,1.1,1.5,1.899,2.7,2.1c1.4,0.302,2.9,0.103,3.4-1.1c0.5-1.203,0.3-2.4-1.2-3.701c-1-0.699-2.1-1.199-3.3-1.299   C151.001,141.917,150.001,141.917,149.202,141.816z M134.501,130.816c-0.7-1.799-0.9-3.799-0.6-5.698c-1.7,2.1-3.6,4-3.6,4   s-2.2,2.299-3.9,3.799c0.3,2,0.9,3.899,1.9,5.701c0.6,1.1,1.3,2.198,2,3.198c0.3,0.398,0.7,0.898,0.8,1.101   c2.6-1.897,4.9-4,7-6.397C136.602,134.816,135.401,132.917,134.501,130.816z M72.501,131.217c-0.8-1-2.1-1.398-3.3-1.301   c-1.1,0-2.2,0.4-2.9,1.301c0.9,1.5,1.9,3,3.1,4.4C70.602,134.316,71.702,132.917,72.501,131.217z M142.001,131.217   c-0.7-0.801-1.8-1.301-2.9-1.301c-1.2-0.1-2.4,0.301-3.3,1.301c0.7,1.699,1.8,3.301,3.1,4.5   C140.102,134.316,141.102,132.816,142.001,131.217L142.001,131.217z M144.901,121.917c0.1,0.301,0.2,0.603,0.2,0.899   c2.1,9.398-17,30-41.1,30c-24.8,0-44.5-22.198-40.8-31c-2.5,1.601-5.9,3.898-7,4.802c-5.4,4.799,4.2,19,18,27.799   c8.9,5.701,19.3,8.701,29.8,8.399c10.6,0.302,21-2.602,29.8-8.399c13.8-8.799,23.4-23,17.9-27.699   C150.901,125.717,147.501,123.518,144.901,121.917L144.901,121.917z M135.202,122.217c1.1-1.801,2.4-3.199,4.8-3.301   c1.2-0.1,2.4,0.201,3.4,1c0.2,0.102,7.8,5.102,9,6.201c3.5,3,1.8,8.898-2.7,15c0.7,0.1,1.6,0.199,2.5,0.299   c1.3,0.201,2.6,0.701,3.7,1.5c1.7,1.4,2.1,2.9,1.4,4.9c-1,2.1-1.8,3.199-2.9,5.397c-0.9,1.802-1.5,3.399-2.1,4.603   c-0.6,1.199-1.4,2.199-2.7,2.301c-1.1,0.1-2.1-0.801-2.1-1.9c0-0.1,0-0.199,0-0.398l1.1-5.5c-1.3-0.102-2.6-0.301-3.9-0.697   c-1.3-0.303-2.6-0.803-3.8-1.303c-2,1.699-4.2,3.303-6.5,4.803c-9,5.799-19.5,8.799-30.2,8.5c-10.7,0.299-21.3-2.701-30.3-8.5   c-2.3-1.398-4.4-3-6.5-4.803c-1.2,0.5-2.5,1-3.8,1.303c-1.3,0.396-2.6,0.602-3.9,0.697l1.1,5.5c0.1,1.102-0.7,2.102-1.8,2.199   c-0.1,0-0.2,0-0.4,0c-1.3-0.102-2.1-1.102-2.7-2.301s-1.2-2.801-2.1-4.6c-1.1-2.201-1.9-3.301-2.9-5.4c-0.8-2-0.4-3.398,1.4-4.898   c1.1-0.801,2.3-1.301,3.7-1.5c0.9-0.197,1.8-0.197,2.6-0.301c-4.5-6.102-6.2-11.896-2.7-15c1.4-1.199,7.3-5,9.3-6.301   c0.9-0.6,2-0.898,3.2-0.801c2.3,0.102,3.7,1.4,4.7,3.201c1.9,2.6,5.3,6.398,5.3,6.398s2.5,2.602,4.2,4.102l0.1,0.398   c-0.3,2.102-1,4.102-2,6c-0.6,1.198-1.3,2.301-2.1,3.396c-0.3,0.398-0.5,0.802-0.7,1c15.7,11.398,37,11.398,52.7,0   c-0.2-0.299-0.5-0.698-0.8-1.102c-0.8-1.102-1.5-2.197-2.1-3.301c-1-1.896-1.7-3.896-2-6l0.1-0.396c1.7-1.5,4.2-4.104,4.2-4.104   s3.4-3.801,5.3-6.396L135.202,122.217L135.202,122.217z"/>
	<path fill="#FAA61A" d="M148.102,41.317v46.6c0,3.6-0.5,7.2-1.5,10.701c-2.4,9.198-6.8,17.698-12.7,25.198   c-5.8,7.399-13.3,13.399-19.3,17.5c-3.4,2.302-6.9,4.398-10.5,6.302c-3.8-1.9-7.5-4.101-11-6.5c-6.4-4.302-14.2-10.802-20.1-19   c-5.1-7.302-8.8-15.5-10.9-24.101c-1-3.7-1.6-7.5-1.8-11.4v-45.3H148.102L148.102,41.317z"/>
	<path fill="#231F20" d="M70.501,51.717h67.4v35.8c0,0,0,12.7-10.1,27.5c-8.7,12.698-23.7,20.799-23.7,20.799s-16.6-10-24.8-23   c-9.2-14.5-8.8-27.399-8.8-27.399V51.717L70.501,51.717z"/>
	<path fill="#231F20" d="M148.102,41.317h-87.8v45.2c0.2,3.8,0.8,7.7,1.8,11.399c2.1,8.701,5.8,16.801,10.9,24.102   c5.9,8.299,13.7,14.698,20.1,19c3.5,2.396,7.2,4.602,11.1,6.602c3.6-1.9,7.1-4,10.5-6.303c6.1-4.1,13.6-10.1,19.3-17.5   c5.9-7.398,10.3-16,12.7-25.197c1-3.5,1.5-7.101,1.5-10.701L148.102,41.317L148.102,41.317z M148.901,40.517v47.4   c0,0.1,0.8,17-14.4,36.399c-11.6,14.899-30.4,24.302-30.4,24.302c-4-2-7.9-4.201-11.5-6.802c-6.4-4.399-14.3-10.899-20.3-19.198   c-7.4-10.601-11.9-23.101-12.9-36v-46L148.901,40.517z"/>
	<path fill="#E41815" d="M80.901,119.118l1.3,2.198c-2.2-0.602-4.3-1.299-6.4-2.198H80.901z M127.602,119.118l-1.3,2.198   c2.2-0.602,4.3-1.299,6.4-2.198H127.602z M104.202,145.118c2.3-1,4.4-2.201,6.3-3.701c6.9-5.299-0.7-7.199-3.3-4.5   c-2.3,2.399,0.2,3.399,2.2,2.701c0,0-1.4,1-2.8,1.698c-0.9,0.5-1.8,1-2.5,1.302c-0.7-0.302-1.7-0.802-2.5-1.302   c-1.3-0.799-2.8-1.698-2.8-1.698c2,0.698,4.5-0.302,2.2-2.701c-2.7-2.699-10.3-0.799-3.3,4.5   C99.702,142.917,101.801,144.118,104.202,145.118L104.202,145.118z M133.602,120.217c-5.4,2.9-9,2.602-12.7,5.602   c-5.8,4.602,0,5.803,2.5,3.199c1.8-1.801-0.1-2.602-1.5-1.896c2.6-1.803,4.2-2.104,7-3c0,0-4.2,6.396-10.3,9.799   c1.2-1.197,1-3.5-1.6-2.197c-3.6,1.801-4.1,8.602,2.7,3.801C125.301,131.316,130.001,126.118,133.602,120.217z M74.901,120.217   c5.4,2.9,9,2.602,12.7,5.602c5.8,4.602,0,5.803-2.5,3.199c-1.8-1.801,0.1-2.602,1.5-1.896c-2.6-1.803-4.2-2.104-7-3   c0,0,4.2,6.396,10.4,9.799c-1.2-1.197-1-3.5,1.6-2.197c3.6,1.801,4.1,8.602-2.7,3.801   C83.202,131.316,78.501,126.118,74.901,120.217z"/>
	<path fill="#E41815" d="M64.702,93.117c0.3,1.5,0.6,3,1.1,4.4c-0.1-1.7,1.7-3.8,3-1.3c1.8,3.699-2.6,9.5-4.8,1.5   c-0.4-1.5-0.7-3-1-4.6H64.702z M69.102,93.117c-0.4,1.6-1.9,1.2-3,0H69.102z M139.401,93.117c0.4,1.6,1.9,1.2,3,0H139.401z    M143.901,93.117c-0.3,1.5-0.6,3-1.1,4.4c0.1-1.7-1.7-3.8-3-1.3c-1.8,3.699,2.6,9.5,4.8,1.5c0.4-1.5,0.7-3,1-4.6H143.901z    M75.801,119.118c-1.9-0.9-3.6-2.201-4.9-3.9c-4.3-6,0.2-5.801,2.5-3.198c1.7,1.897-0.2,2.698-1.5,1.897   c1.6,1.899,3.7,3.301,6,4.103c-2.1-4.103-4.7-7.897-7.7-11.397c1.1,1.299,1,3.5-1.6,2.198c-3.6-1.801-2.7-10.198,2.7-3.801   c1.8,2.198,3.4,4.397,4.8,6.397c2,2.899,3.5,5.399,4.9,7.701H75.801z M132.702,119.118c1.9-0.9,3.6-2.201,4.9-3.9   c4.3-6-0.2-5.801-2.5-3.198c-1.7,1.897,0.2,2.698,1.5,1.897c-1.6,1.899-3.7,3.301-6,4.103c2.1-4.103,4.7-7.897,7.7-11.397   c-1.1,1.299-1,3.5,1.6,2.198c3.6-1.801,2.7-10.198-2.7-3.801c-1.8,2.198-3.4,4.397-4.8,6.397c-2,2.899-3.6,5.399-4.9,7.701H132.702   z"/>
	<path fill="#E41815" d="M63.001,93.117c-0.7-5.1-0.9-10.2-0.5-15.3c2.6,5.5,5.2,7.3,6.4,11.8c0.4,1.1,0.5,2.3,0.3,3.5h-3   c-0.6-0.7-1-1.5-1.1-2.4c-0.3-2.5,1.6-2,2.2-0.7c-0.7-2.3-1.9-4.5-3.4-6.5c-0.1,3.2,0.2,6.4,0.8,9.5L63.001,93.117z    M142.401,93.117c0.6-0.7,1-1.5,1.1-2.4c0.3-2.5-1.6-2-2.2-0.7c0.7-2.3,1.9-4.5,3.3-6.5c0.1,3.2-0.2,6.4-0.8,9.5h1.6   c0.7-5.1,0.9-10.2,0.5-15.3c-2.5,5.5-5.1,7.2-6.3,11.8c-0.4,1.1-0.5,2.3-0.3,3.5L142.401,93.117z M144.102,45.617   c1,2.4,1.6,4.8,2,7.3c1.2,8.6-5.3,4.6-5.6,0.8c-0.2-3.3,2.8-2.2,3.4-0.6c-0.1-1-0.3-2-0.6-2.9c-0.3-1-0.6-1.9-1-2.8   c-0.9-0.4-1.9-0.7-2.8-1c-1-0.3-1.9-0.5-2.9-0.6c1.6,0.7,2.7,3.6-0.6,3.5c-3.8-0.2-7.8-6.7,0.8-5.6   C139.401,44.017,141.901,44.717,144.102,45.617L144.102,45.617z M139.901,84.717c2.8-3.8,5.4-8.2,6.3-12.8c1.5-7.2-3.7-4.5-3.9-0.9   c-0.2,2.5,1.8,2,2.3,0.6c-0.6,2.5-1.6,5-3,7.2v-9c0.1-1.9,0.4-3.7,1-5.5c-0.3,1.7,1.6,3.4,2.7,0.8c1.6-3.7-2.3-9.3-4.5-1.3   c-0.6,1.9-0.9,3.9-0.9,5.9V84.717L139.901,84.717z M100.202,49.717c4.3-2.8,9.3-5.5,14.5-6.4c8.2-1.5,5,3.7,1,4   c-2.8,0.2-2.2-1.8-0.6-2.3c-2.9,0.6-5.6,1.6-8.2,3h9.8c2.6,0,5.3-0.4,7.8-1.1c-1.9,0.3-3.8-1.6-0.8-2.7c4.3-1.6,10.5,2.3,1.4,4.6   c-2.7,0.6-5.6,0.9-8.4,0.9H100.202L100.202,49.717z M64.401,45.617c-1,2.4-1.6,4.8-2,7.3c-1.2,8.6,5.4,4.6,5.5,0.8   c0.2-3.3-2.8-2.2-3.5-0.6c0.1-1,0.3-2,0.6-2.9c0.3-1,0.6-1.9,1-2.8c0.9-0.4,1.9-0.7,2.9-1s1.9-0.5,2.9-0.6   c-1.6,0.7-2.7,3.6,0.6,3.5c3.8-0.2,7.8-6.7-0.8-5.6C69.202,44.017,66.702,44.717,64.401,45.617L64.401,45.617z M68.602,84.717   c-2.8-3.8-5.4-8.2-6.4-12.8c-1.5-7.2,3.7-4.5,3.9-0.9c0.2,2.5-1.8,2-2.3,0.6c0.6,2.5,1.6,5,3,7.2v-9c-0.1-1.9-0.4-3.7-1-5.5   c0.3,1.7-1.6,3.4-2.7,0.8c-1.6-3.7,2.3-9.3,4.5-1.3c0.6,1.9,0.9,3.9,0.9,5.9L68.602,84.717L68.602,84.717z M108.102,43.217   c-4.3,2.8-9.3,5.5-14.5,6.4c-8.2,1.5-5-3.7-1-4c2.8-0.2,2.2,1.8,0.6,2.3c2.9-0.6,5.6-1.6,8.2-3h-9.8c-2.7,0-5.3,0.4-7.9,1.1   c2-0.3,3.8,1.6,0.8,2.7c-4.2,1.6-10.5-2.3-1.4-4.6c2.7-0.6,5.6-0.9,8.4-0.9H108.102L108.102,43.217z"/>
	<path fill="#FAA61A" d="M138.901,124.518c0.1,0.602,0.7,1,1.3,0.896c0.5-0.1,0.9-0.5,0.9-1c0-0.299-0.1-0.5-0.2-0.698   c-0.2-0.198-0.4-0.3-0.6-0.399c-0.9-0.197-1.9,0.201-2.3,1c-0.6,1.303-0.1,2.899,1.2,3.602c0.1,0,0.2,0.104,0.2,0.104   c2,0.602,4.2-0.5,4.8-2.5c0.1-0.303,0.1-0.604,0.2-0.898c0.3-1.701-0.5-3.398-2-4.301c-1.8-1-5.6-0.5-6.4,2.896l0.1,0.104   c1.7-2.199,3.8-2.199,5.1-1.604c1.4,0.803,1.9,2.604,1.1,4c0,0.104-0.1,0.104-0.1,0.199c-0.6,0.898-1.8,1.301-2.7,0.701   c0,0-0.1,0-0.1-0.102C138.801,125.917,138.602,125.118,138.901,124.518L138.901,124.518z M69.401,124.518   c-0.1,0.602-0.7,1-1.3,0.896c-0.5-0.1-0.9-0.5-0.9-1c0-0.299,0.1-0.5,0.3-0.698s0.4-0.302,0.6-0.399c0.9-0.197,1.9,0.201,2.3,1   c0.6,1.303,0.1,2.899-1.2,3.602c-0.1,0-0.2,0.104-0.2,0.104c-2,0.602-4.2-0.5-4.8-2.5c-0.1-0.303-0.1-0.604-0.2-0.9   c-0.3-1.701,0.5-3.4,2-4.301c1.8-1,5.6-0.5,6.4,2.897l-0.1,0.103c-1.7-2.199-3.8-2.199-5.1-1.603c-1.4,0.802-1.9,2.603-1.1,4   c0,0.103,0.1,0.103,0.1,0.198c0.6,0.898,1.8,1.302,2.7,0.701c0,0,0.1,0,0.1-0.104c0.6-0.5,0.8-1.199,0.5-1.896L69.401,124.518z"/>
	<path fill="#FAA61A" d="M109.301,127.217l-5.1-3.699l-5.1,3.699l1.9-6l-5.1-3.699h6.3l1.9-6l1.9,6h6.3l-5.1,3.699L109.301,127.217   L109.301,127.217z M108.301,66.117l-4.1-2.9l-4,2.9l1.5-4.8l-4-2.9h5l1.5-4.8l1.5,4.8h5l-4,2.9L108.301,66.117L108.301,66.117z    M134.102,92.317l-4.1-2.9l-4.1,2.9l1.6-4.8l-4-2.9h5l1.6-4.8l1.6,4.8h5l-4.1,2.9L134.102,92.317L134.102,92.317z M82.202,92.317   l-4-2.9l-4.1,2.9l1.5-4.8l-4-2.9h5l1.6-4.8l1.5,4.8h5l-4,2.9L82.202,92.317L82.202,92.317z"/>
	<path fill="#E41815" d="M86.501,75.717h1.3v28.9h14.3c0.2,0,0.4,0,0.6-0.102c0.4-0.199,0.8-0.5,1.1-0.802   c0.2-0.198,0.3-0.302,0.4-0.5c0.1,0.198,0.3,0.399,0.4,0.5c0.3,0.302,0.7,0.603,1.1,0.802c0.2,0.102,0.4,0.102,0.6,0.102h14.3   v-28.9h1.3v29.801h-14.8c0.1,1.102-1.1,1.102-2.9,1.102c-1.8,0-3,0.1-2.9-1.102h-14.8V75.717z"/>
	<path fill="#231F20" d="M118.401,73.017c-0.2-0.1-0.4-0.3-0.6-0.5v27.5l1.9,2.7v-29c-0.2-0.2-0.7-0.4-1.1-0.6L118.401,73.017   L118.401,73.017z M104.602,98.317c0.6-0.5,1.5-0.8,2.3-0.8c2.3-0.2,3.1,0.8,4.2,1.3c1.8,0.801,3.8,1.1,5.8,0.9v-28.1   c-2,0.1-4-0.2-5.8-0.9c-1.1-0.5-1.9-1.5-4.3-1.4c-0.9,0-1.8,0.5-2.2,1.2V98.317L104.602,98.317z M103.801,98.317v-27.6   c-0.5-0.8-1.3-1.2-2.3-1.2c-2.4-0.2-3.2,0.9-4.3,1.4c-1.9,0.7-3.8,1-5.8,0.9v28.099c2,0.101,4-0.199,5.8-0.899   c1.1-0.5,1.9-1.5,4.2-1.3C102.301,97.517,103.102,97.817,103.801,98.317L103.801,98.317z M89.001,103.816h13.2   c0.4-0.102,0.7-0.299,1-0.602c0.3-0.197,0.4-0.5,0.6-0.898v-0.299v-2.399c-0.1-0.201-0.3-0.4-0.4-0.5c-0.5-0.4-1.1-0.701-1.8-0.701   c-0.8-0.1-1.7,0-2.5,0.4c-0.6,0.301-1.1,0.7-1.7,0.9c-1.4,0.6-2.9,0.9-4.4,0.9c-0.6,0-1.2,0-1.8,0L89.001,103.816L89.001,103.816z    M90.001,73.017c-0.6,0.3-1,0.6-1.3,0.8v29l1.9-2.798v-27.5C90.401,72.717,90.202,72.817,90.001,73.017z M104.602,99.618v2.399   c0,0.101,0,0.198,0,0.299c0.1,0.302,0.3,0.601,0.6,0.898c0.3,0.303,0.6,0.5,0.9,0.602h13.3l-2.2-3.299c-0.6,0-1.2,0-1.8,0   c-1.5,0-3-0.399-4.4-0.899c-0.6-0.301-1.1-0.601-1.7-0.9c-0.8-0.301-1.6-0.5-2.5-0.4c-0.7,0-1.3,0.301-1.8,0.7   C104.901,99.217,104.702,99.417,104.602,99.618L104.602,99.618z M92.901,70.817c1.4,0,2.8-0.3,4.1-0.9c0.6-0.2,1-0.6,1.7-0.9   c0.9-0.4,1.9-0.6,2.9-0.4c0.8,0,1.6,0.4,2.3,0.9c0.1,0.1,0.2,0.2,0.3,0.3c0.1-0.1,0.2-0.2,0.3-0.3c0.6-0.6,1.4-0.9,2.2-0.9   c1-0.1,2,0,2.9,0.5c0.6,0.3,1.1,0.7,1.7,0.9c1.3,0.5,2.7,0.8,4.1,0.9c0.8,0,1.6,0,2.3-0.1c0.1,0.6,0.5,1.2,1.1,1.5   c0.5,0.4,1.7,1,1.7,1v31.3h-14.2c-0.2,0-0.4,0-0.6-0.102c-0.4-0.199-0.8-0.5-1.1-0.802c-0.1-0.198-0.3-0.302-0.4-0.5   c-0.1,0.198-0.3,0.302-0.4,0.5c-0.3,0.302-0.7,0.603-1.1,0.802c-0.1,0-0.2,0.102-0.4,0.102h-14.5v-31.3c0,0,1.1-0.7,1.7-1   c0.6-0.3,1-0.9,1.1-1.5C91.401,70.817,92.202,70.917,92.901,70.817L92.901,70.817z"/>
	<path fill="#FAA61A" d="M89.001,103.816h13.2c0.4-0.102,0.7-0.299,1-0.602c0.3-0.197,0.4-0.5,0.6-0.898v-2.698   c-0.1-0.201-0.3-0.4-0.4-0.5c-0.5-0.4-1.1-0.701-1.8-0.701c-0.8-0.1-1.7,0-2.5,0.4c-0.6,0.301-1.1,0.7-1.7,0.9   c-1.4,0.6-2.9,0.9-4.4,0.9c-0.6,0-1.2,0-1.8,0L89.001,103.816L89.001,103.816z M119.401,103.816h-13.2   c-0.4-0.102-0.7-0.299-1-0.602c-0.3-0.197-0.4-0.5-0.6-0.898v-2.698c0.1-0.201,0.3-0.4,0.4-0.5c0.5-0.4,1.1-0.701,1.8-0.701   c0.8-0.1,1.7,0,2.5,0.4c0.6,0.301,1.1,0.7,1.7,0.9c1.4,0.6,2.9,0.9,4.4,0.9c0.6,0,1.2,0,1.8,0L119.401,103.816L119.401,103.816z    M118.401,73.017c0.6,0.3,1,0.6,1.3,0.8v29l-1.9-2.798v-27.5C118.001,72.717,118.202,72.817,118.401,73.017z M89.901,73.017   c-0.6,0.3-1,0.6-1.3,0.8v29l1.9-2.798v-27.5C90.301,72.717,90.102,72.817,89.901,73.017z"/>
	<path fill="#FFFFFF" d="M104.602,98.317v-27.6c0.5-0.8,1.3-1.2,2.2-1.2c2.4-0.2,3.2,0.9,4.3,1.4c1.9,0.7,3.8,1,5.8,0.9v28.099   c-2,0.101-4-0.199-5.8-0.899c-1.1-0.5-1.9-1.5-4.2-1.3C106.102,97.517,105.301,97.817,104.602,98.317L104.602,98.317z    M103.801,98.317v-27.6c-0.5-0.8-1.3-1.2-2.3-1.2c-2.4-0.2-3.2,0.9-4.3,1.4c-1.9,0.7-3.8,1-5.8,0.9v28.099   c2,0.101,4-0.199,5.8-0.899c1.1-0.5,1.9-1.5,4.2-1.3C102.301,97.517,103.102,97.817,103.801,98.317L103.801,98.317z"/>
	<path fill="#231F20" d="M115.801,96.617c-1.1,0.2-2.2,0.1-3.3-0.2c-1.7-0.5-2.6-1.4-4-1.5c-0.9-0.1-1.9,0-2.8,0.2   c0.7-0.6,1.6-0.9,2.5-1c1.9,0,3,1,4.6,1.6C113.801,96.017,114.801,96.317,115.801,96.617L115.801,96.617z M115.801,93.917   c-1.1,0.2-2.3,0.1-3.3-0.3c-1.7-0.5-2.6-1.4-4-1.5c-0.9-0.1-1.9,0-2.8,0.2c0.7-0.6,1.6-0.9,2.5-1c1.9,0,3,1,4.6,1.6   C113.801,93.317,114.801,93.617,115.801,93.917L115.801,93.917z M115.801,91.217c-1.1,0.2-2.2,0.1-3.3-0.2c-1.7-0.5-2.6-1.4-4-1.5   c-0.9-0.1-1.9,0-2.8,0.2c0.7-0.6,1.6-0.9,2.5-1c1.9,0,3,1,4.6,1.6C113.801,90.617,114.801,90.917,115.801,91.217L115.801,91.217z    M115.801,88.517c-1.1,0.2-2.3,0.1-3.3-0.3c-1.7-0.5-2.6-1.4-4-1.5c-0.9-0.1-1.9,0-2.8,0.2c0.7-0.6,1.6-0.9,2.5-1   c1.9,0,3,1,4.6,1.6C113.801,87.917,114.801,88.217,115.801,88.517L115.801,88.517z M115.801,85.817c-1.1,0.2-2.2,0.1-3.3-0.2   c-1.7-0.5-2.6-1.4-4-1.5c-0.9-0.1-1.9,0-2.8,0.2c0.7-0.6,1.6-0.9,2.5-1c1.9,0,3,1,4.6,1.6   C113.801,85.217,114.801,85.517,115.801,85.817L115.801,85.817z M115.801,83.117c-1.1,0.2-2.2,0.1-3.3-0.2c-1.7-0.5-2.6-1.4-4-1.5   c-0.9-0.1-1.9,0-2.8,0.2c0.7-0.6,1.6-0.9,2.5-1c1.9,0,3,1,4.6,1.6C113.801,82.517,114.801,82.817,115.801,83.117L115.801,83.117z    M115.801,80.317c-1.1,0.2-2.2,0.1-3.3-0.2c-1.7-0.5-2.6-1.5-4-1.6c-0.9-0.1-1.9,0-2.8,0.2c0.7-0.6,1.6-0.9,2.5-1   c1.9,0,3,1,4.6,1.6C113.801,79.717,114.801,80.017,115.801,80.317L115.801,80.317z M115.801,77.617c-1.1,0.2-2.2,0.1-3.3-0.2   c-1.7-0.5-2.6-1.4-4-1.5c-0.9-0.1-1.9,0-2.8,0.2c0.7-0.6,1.6-0.9,2.5-1c1.9,0,3,1,4.6,1.6   C113.801,77.017,114.801,77.317,115.801,77.617L115.801,77.617z M115.801,74.917c-1.1,0.2-2.3,0.1-3.3-0.3c-1.7-0.5-2.6-1.4-4-1.5   c-0.9-0.1-1.9,0-2.8,0.2c0.7-0.6,1.6-0.9,2.5-1c1.9,0,3,1,4.6,1.6c1,0.4,2,0.7,3,0.9V74.917z M92.602,96.617   c1.1,0.2,2.2,0.1,3.3-0.2c1.7-0.5,2.6-1.4,4-1.5c0.9-0.1,1.9,0,2.8,0.2c-0.7-0.6-1.6-0.9-2.5-1c-1.9,0-3,1-4.5,1.6   C94.602,96.017,93.602,96.317,92.602,96.617L92.602,96.617z M92.602,93.917c1.1,0.2,2.2,0.1,3.3-0.2c1.7-0.5,2.6-1.4,4-1.5   c0.9-0.1,1.9,0,2.8,0.2c-0.7-0.6-1.6-0.9-2.5-1c-1.9,0-3,1-4.5,1.6C94.602,93.317,93.602,93.617,92.602,93.917L92.602,93.917z    M92.602,91.217c1.1,0.2,2.2,0.1,3.3-0.2c1.7-0.5,2.6-1.4,4-1.5c0.9-0.1,1.9,0,2.8,0.2c-0.7-0.6-1.6-0.9-2.5-1c-1.9,0-3,1-4.5,1.6   C94.602,90.617,93.602,90.917,92.602,91.217L92.602,91.217z M92.602,88.517c1.1,0.2,2.2,0.1,3.3-0.2c1.7-0.5,2.6-1.4,4-1.5   c0.9-0.1,1.9,0,2.8,0.2c-0.7-0.6-1.6-0.9-2.5-1c-1.9,0-3,1-4.5,1.6C94.602,87.917,93.602,88.217,92.602,88.517L92.602,88.517z    M92.602,85.817c1.1,0.2,2.2,0.1,3.3-0.2c1.7-0.5,2.6-1.4,4-1.5c0.9-0.1,1.9,0,2.8,0.2c-0.7-0.6-1.6-0.9-2.5-1c-1.9,0-3,1-4.5,1.6   C94.602,85.217,93.602,85.517,92.602,85.817L92.602,85.817z M92.602,83.117c1.1,0.2,2.2,0.1,3.3-0.2c1.7-0.5,2.6-1.4,4-1.5   c0.9-0.1,1.9,0,2.8,0.2c-0.7-0.6-1.6-0.9-2.5-1c-1.9,0-3,1-4.5,1.6C94.602,82.517,93.602,82.817,92.602,83.117L92.602,83.117z    M92.602,80.317c1.1,0.2,2.2,0.1,3.3-0.2c1.6-0.5,2.6-1.5,4-1.6c0.9-0.1,1.9,0,2.8,0.2c-0.7-0.6-1.6-0.9-2.5-1c-1.9,0-3,1-4.5,1.6   C94.602,79.717,93.602,80.017,92.602,80.317L92.602,80.317z M92.602,77.617c1.1,0.2,2.2,0.1,3.3-0.2c1.7-0.5,2.6-1.4,4-1.5   c0.9-0.1,1.9,0,2.8,0.2c-0.7-0.6-1.6-0.9-2.5-1c-1.9,0-3,1-4.5,1.6C94.602,77.017,93.602,77.317,92.602,77.617L92.602,77.617z    M92.602,74.917c1.1,0.2,2.2,0.1,3.3-0.2c1.7-0.5,2.6-1.4,4-1.5c0.9-0.1,1.9,0,2.8,0.2c-0.7-0.6-1.6-0.9-2.5-1c-1.9,0-3,1-4.5,1.6   C94.602,74.317,93.602,74.617,92.602,74.917L92.602,74.917z"/>
	<path fill="#FFFFFF" d="M191.202,52.017c0-0.2-0.1-0.3-0.301-0.3h-0.399h-0.7c-0.1,0-0.7,0-1.6,0h-3.4h-3h-1.3h-1.4   c-0.3,0-0.3,0-0.3,0.1c-0.1,0.2-0.1,0.4-0.1,0.7l-0.2,1.9c0,0.1,0,0.3,0,0.4l0,0c0,0.1,0.2,0.2,0.5,0.2c0.1,0,0.1,0,0.2-0.1   c0.1-0.8,0.5-1.4,1.2-1.8c1-0.3,2-0.4,3.1-0.3h0.3v10.6c0,1.2-0.1,1.5-0.4,1.7c-0.5,0.2-1,0.3-1.4,0.3s-0.5,0.1-0.5,0.3v0.1   c0,0.2,0.1,0.3,0.2,0.3h0.3c0.2,0,0.6,0,1,0c0.8,0,1.4,0,1.9,0h2.2c0.4,0,0.6,0,0.7,0h0.3c0.3,0,0.4,0,0.4-0.3v-0.2   c0-0.1-0.1-0.2-0.6-0.2s-1-0.1-1.4-0.2c-0.4-0.2-0.5-0.5-0.5-1.8v-10.6h0.9c0.7,0,1.4,0,1.8,0.1c0.3,0,0.6,0.1,0.8,0.2   c0.4,0.2,0.7,0.7,0.8,1.6c0,0.3,0.1,0.4,0.4,0.4c0.3,0,0.3,0,0.4-0.3v-0.3v-0.5l0.1-1.5v-0.2V52.017L191.202,52.017z"/>
	<path fill="#FFFFFF" d="M212.001,65.817L212.001,65.817c0-0.4-0.101-0.4-0.5-0.4h-0.5l0,0c-0.899-0.1-1-0.3-1-1.9v-9   c0-1.6,0.101-1.8,1-1.9l0,0l0.5-0.1c0.399,0,0.5-0.1,0.5-0.4v-0.1c0-0.2-0.101-0.3-0.3-0.3h-0.2h-1h-0.7c-0.6,0-1,0-1.3,0h-0.2   c-0.5,0-0.9,0-1.4,0h-0.799h-0.201c-0.199,0-0.299,0.1-0.299,0.3v0.1c0,0.3,0.1,0.3,0.399,0.4c0.2,0,0.3,0,0.5,0.1l0,0   c0.899,0.1,1,0.3,1,1.9v3.5h-7v-3.5c0-1.6,0.101-1.8,1-1.9l0,0l0.5-0.1c0.399,0,0.5-0.1,0.5-0.4v-0.1c0-0.2-0.101-0.3-0.3-0.3   c-0.2,0-0.5,0-1,0h-1.9c-0.4,0-0.8,0-1.199,0h-0.601h-0.8h-0.2c-0.2,0-0.3,0.1-0.3,0.3v0.1c0,0.3,0.1,0.3,0.4,0.4   c0.199,0,0.299,0,0.5,0.1l0,0c0.899,0.1,1,0.3,1,1.9v8.9c0,0.5,0,1-0.101,1.5c-0.101,0.2-0.2,0.3-0.8,0.4l0,0   c-0.2,0-0.301,0.1-0.5,0.1c-0.4,0-0.4,0-0.4,0.4v0.1c0,0.2,0.1,0.2,0.301,0.2h0.6h0.5c0.699,0,1.3,0,1.9,0s1.6,0,2.5,0h0.299   c0.201,0,0.301,0,0.301-0.3v-0.1c0-0.2-0.1-0.3-0.4-0.3l-0.5-0.1l0,0c-1-0.1-1.1-0.3-1.1-2v-4.3h7.199v4.3c0,1.6-0.1,1.8-1.1,1.9   l0,0c-0.199,0-0.3,0.1-0.5,0.1c-0.4,0-0.4,0.1-0.4,0.3v0.1c0,0.3,0.101,0.3,0.301,0.3h0.6h0.6c0.601,0,1.201,0,1.701,0   s0.899,0,1.399,0h0.8h0.7C212.001,66.117,212.001,66.117,212.001,65.817L212.001,65.817z"/>
	<path fill="#FFFFFF" d="M228.602,62.617c0-0.1-0.201-0.3-0.5-0.3c-0.101,0-0.101,0.1-0.201,0.3c-0.5,1.2-0.799,1.5-1.6,1.9   c-0.9,0.3-1.8,0.5-2.8,0.4c-1.601,0-1.899-0.2-1.899-1.3v-4.6h0.5h1.1c1.9,0,2.3,0.1,2.5,0.4c0.199,0.4,0.3,0.9,0.3,1.3   c0,0.2,0.101,0.2,0.2,0.2c0.4,0,0.5,0,0.5-0.3c0-0.1,0-0.2,0-0.3c0-0.6,0-1.2,0-1.9c0-0.5,0-1,0-1.4v-0.6c0-0.2-0.1-0.3-0.4-0.3   c-0.3,0-0.3,0.1-0.3,0.4c-0.101,1.1-0.399,1.4-1.5,1.5h-1.101h-1.199h-0.7v-5.2h0.5h1.101c0.899-0.1,1.899,0.1,2.799,0.3   c0.5,0.4,0.9,0.9,1.101,1.5l0.101,0.3c0,0.1,0.1,0.1,0.1,0.1c0.3,0,0.5-0.1,0.5-0.3c0-0.1,0-0.2,0-0.3c0-0.3-0.1-0.8-0.2-1.6   c0-0.2,0-0.4,0-0.6c0-0.5-0.101-0.6-0.601-0.6c-0.1,0-0.199,0-0.299,0h-1.601h-2.2h-3.3c-0.7,0-1.2,0-1.5,0h-0.399   c-0.201,0-0.201,0.1-0.201,0.3v0.2c0,0.2,0.101,0.3,0.201,0.3h0.399h0.399c0.201,0,0.4,0.1,0.5,0.2c0.301,0.2,0.4,0.5,0.4,1.7v9.4   c0,0.8,0,0.9-0.199,1.1c0,0.1-0.101,0.2-0.201,0.2c-0.399,0.2-0.899,0.3-1.399,0.3c-0.2,0-0.2,0.1-0.2,0.2v0.2   c0,0.2,0.1,0.2,0.301,0.2h0.699h1.2c1.101,0,1.899,0,2.5,0h0.399h2.601h1.2c0.5,0,0.8,0,1,0h0.4c0.299,0,0.399-0.1,0.399-0.4   c0-0.1,0-0.2,0-0.4l0.2-1c0.1-0.4,0.199-0.9,0.3-1.3C228.501,62.817,228.501,62.717,228.602,62.617L228.602,62.617z"/>
	<path fill="#FFFFFF" d="M260.202,52.117v-0.1c0-0.2-0.101-0.2-0.301-0.2c-0.199,0-0.5,0-1,0c-0.899,0-1.5,0-1.801,0h-1.201H255   h-0.2l0,0c-0.1,0-0.199,0-0.199,0.2v0.1c0,0,0,0,0,0.1c0,0.2,0.1,0.3,0.699,0.3c0.801,0,1.301,0.2,1.4,0.5   c0.1,0.5,0.199,1.1,0.199,1.6l0.101,5v0.4c0,1.8-0.101,2.6-0.601,3.3c-0.799,1.2-2.1,1.8-3.5,1.7c-1.399,0.1-2.799-0.5-3.6-1.6   c-0.4-1.1-0.6-2.3-0.5-3.5v-5.5c0,0,0-0.2,0-0.5s0-0.4,0-0.5c0-0.3,0.1-0.5,0.301-0.6c0.5-0.2,1.1-0.4,1.699-0.3   c0.2,0,0.2-0.1,0.2-0.3v-0.2c0-0.1-0.101-0.2-0.3-0.2l0,0h-0.1h-1.301h-1.6h-1.9H245.1h-0.301c-0.199,0-0.199,0.1-0.199,0.3   c0,0.4,0,0.4,0.299,0.5h0.301c0.699,0,1.1,0.3,1.199,0.7c0.101,0.4,0.101,0.8,0.101,1.3v7c0,0.9,0.101,1.9,0.5,2.7   c0.3,0.6,0.8,1,1.399,1.3c1.101,0.6,2.4,0.9,3.701,0.8c2.6,0,4.5-0.9,5.299-2.4c0.601-1.1,0.698-1.7,0.698-4.4v-5   c0-1.2,0.103-1.7,0.4-1.9c0.399-0.2,0.899-0.3,1.3-0.3C260.202,52.417,260.202,52.417,260.202,52.117L260.202,52.117z"/>
	<path fill="#FFFFFF" d="M281.001,52.017c0-0.2-0.101-0.2-0.3-0.2h-0.2H279.9h-1.5H276.8h-0.7h-0.3c-0.3,0-0.3,0.1-0.3,0.3   c0,0.2,0.1,0.4,0.4,0.4c0.3,0,0.699,0.1,1,0.1c0.3,0,0.6,0.2,0.8,0.5c0.2,0.5,0.2,0.9,0.2,1.4l0.199,8l-8.602-10.7H269.1h-1.801   h-1.1h-0.301l0,0c-0.199,0-0.301,0.1-0.301,0.5c0,0.2,0.102,0.3,0.301,0.3c0.699,0,1.301,0.3,1.801,0.8l-0.301,9.5v0.7   c0,0.9-0.104,1.3-0.399,1.5c-0.2,0.2-0.5,0.2-0.8,0.3l-0.4,0.1c-0.398,0.1-0.5,0.1-0.5,0.4s0.102,0.3,0.301,0.3h0.301h0.803h1.396   c0.399,0,0.899,0,1.5,0h1c0.399,0,0.5,0,0.5-0.3s0-0.4-0.301-0.4c-0.398,0-0.8-0.1-1.199-0.2c-0.301,0-0.601-0.3-0.801-0.6   c-0.1-0.5-0.1-1-0.1-1.5v-0.3l0.1-8.3l8.9,11.5c0.1,0.1,0.199,0.3,0.398,0.4c0.102,0.1,0.301,0.1,0.399,0.1c0.2,0,0.3,0,0.399-0.1   c0-0.1,0.101-0.1,0.101-0.5v-11.4c0-1.1,0.101-1.6,0.399-1.8c0.396-0.2,0.801-0.3,1.199-0.3   C280.902,52.517,280.902,52.417,281.001,52.017L281.001,52.017z"/>
	<path fill="#FFFFFF" d="M292.702,65.817v-0.2c0-0.1-0.101-0.1-0.3-0.2l-0.5-0.1c-1-0.1-1.2-0.3-1.2-1.2v-0.7v-9c0,0,0-0.3,0-0.7   c0-0.1,0-0.3,0-0.4c0-0.2,0.1-0.4,0.3-0.6c0.4-0.2,0.9-0.3,1.4-0.3c0.199,0,0.3-0.1,0.3-0.3v-0.1c0-0.2,0-0.3-0.3-0.3h-0.4h-0.9   h-1.6h-1.8h-1h-0.101c-0.199,0-0.199,0-0.199,0.2v0.1v0.1c0,0.3,0,0.3,0.199,0.3c0.5,0,0.898,0.1,1.398,0.3   c0.3,0.2,0.3,0.5,0.3,1.7v9c0,1.1-0.1,1.5-0.3,1.7c-0.398,0.2-0.898,0.3-1.398,0.3c-0.199,0-0.302,0.1-0.302,0.4v0.1   c0,0.2,0.103,0.2,0.302,0.2h0.301h0.699c0.698,0,1.198,0,1.398,0h1c0.3,0,0.8,0,1.398,0c0.302,0,0.602,0,0.699,0h0.301   C292.602,66.117,292.602,66.117,292.702,65.817L292.702,65.817z"/>
	<path fill="#FFFFFF" d="M313.302,52.217c0-0.3,0-0.4-0.301-0.4h-0.199c-0.5,0-1.201,0-1.701,0h-1.799c-0.398,0-0.701,0-0.898,0   h-0.197c-0.201,0-0.303,0.1-0.303,0.4c0,0.3,0.102,0.3,0.197,0.3h0.4c0.701,0.1,0.801,0.1,1,0.2c0.1,0.1,0.201,0.2,0.201,0.4   c0,0.3-0.104,0.5-0.104,0.7l-0.1,0.8l-0.299,0.7l-3,8.1l-3.501-8.7l-0.3-0.8c-0.104-0.3-0.2-0.6-0.2-0.9c0-0.4,0.3-0.5,1.3-0.6h0.3   c0.2,0,0.3-0.1,0.3-0.3c0-0.2,0-0.4-0.197-0.4H303.6h-0.697c-1,0-1.604,0-1.803,0h-1.802c-0.3,0-0.698,0-1,0h-0.396   c-0.2,0-0.303,0.1-0.303,0.4c0,0.3,0,0.3,0.398,0.4c0.398,0,0.8,0.1,1.2,0.3c0.3,0.2,0.3,0.3,0.896,1.7l0.4,1l4.398,10.4l0.102,0.3   c0.1,0.2,0.1,0.2,0.398,0.2h0.301h0.102c0.102,0,0.102,0,0.199-0.2l0.1-0.1l4.303-10.6c0.197-0.4,0.301-0.7,0.301-0.8   c0.199-0.4,0.301-0.8,0.602-1.2c0.104-0.2,0.199-0.4,0.398-0.6c0.301-0.3,0.602-0.4,1-0.4c0.301,0,0.396-0.1,0.5-0.1   C313.302,52.417,313.402,52.317,313.302,52.217L313.302,52.217z"/>
	<path fill="#FFFFFF" d="M329.501,62.617c0-0.1-0.199-0.3-0.5-0.3c-0.1,0-0.1,0.1-0.199,0.3c-0.5,1.2-0.801,1.5-1.6,1.9   c-0.9,0.3-1.801,0.5-2.801,0.4c-1.604,0-1.9-0.2-1.9-1.3v-4.6h0.5h1.1c2,0,2.303,0.1,2.5,0.4c0.201,0.4,0.303,0.9,0.303,1.3   c0,0.2,0.102,0.2,0.197,0.2c0.4,0,0.5,0,0.5-0.3c0-0.1,0-0.2,0-0.3c0-0.6,0-1.2,0-1.9c0-0.5,0-1,0-1.4v-0.6   c0-0.2-0.1-0.3-0.396-0.3c-0.299,0-0.303,0.1-0.303,0.4c-0.102,1.1-0.398,1.4-1.5,1.5h-1.102H323.1h-0.6v-5.2h0.5h1.1   c0.9-0.1,1.9,0.1,2.803,0.3c0.5,0.4,0.898,0.9,1.102,1.5l0.102,0.3c0,0.1,0.104,0.1,0.104,0.1c0.299,0,0.5-0.1,0.5-0.3   c0-0.1,0-0.2,0-0.3c0-0.3-0.104-0.8-0.201-1.6c0-0.2,0-0.4,0-0.6c0-0.5-0.1-0.6-0.5-0.6c-0.1,0-0.199,0-0.299,0h-1.605h-2.197h-3.4   c-0.699,0-1.199,0-1.5,0h-0.4c-0.197,0-0.197,0.1-0.197,0.3v0.2c0,0.2,0.102,0.3,0.197,0.3h0.4h0.4c0.197,0,0.396,0.1,0.5,0.2   c0.301,0.2,0.396,0.5,0.396,1.7v9.4c0,0.8,0,0.9-0.199,1.1c0,0.1-0.102,0.2-0.197,0.2c-0.4,0.2-0.9,0.3-1.4,0.3   c-0.199,0-0.199,0.1-0.199,0.2v0.2c0,0.2,0.102,0.2,0.299,0.2h0.701h1.199c1.1,0,2,0,2.5,0h0.5h2.5h1.201c0.5,0,0.799,0,1,0h0.199   c0.301,0,0.396-0.1,0.396-0.4c0-0.1,0-0.2,0-0.4l0.199-1c0.102-0.4,0.201-0.9,0.301-1.3c0-0.1,0-0.2,0-0.2H329.501z"/>
	<path fill="#FFFFFF" d="M348.601,65.817c0-0.3-0.1-0.3-0.396-0.3c-1-0.1-1.801-0.6-2.4-1.4c-0.801-1-1.5-2.2-2.1-3.3   c-0.4-0.8-0.9-1.5-1.4-2.2c1.699-0.4,2.799-1.9,2.9-3.6c0-1.1-0.604-2.2-1.5-2.8c-1.201-0.6-2.5-0.9-3.803-0.8   c-1.602,0-3.102,0.1-4.697,0.3c-0.303,0-0.4,0-0.5,0.1c-0.104,0.1-0.104,0.2-0.104,0.3c0,0.3,0.104,0.3,0.303,0.3h0.5   c0.602,0,1,0.2,1.197,0.5c0.201,0.3,0.104,0.3,0.104,1.1v0.7v8.7v0.5c0,0.3,0,0.5,0,0.5c0,0.2-0.104,0.3-0.104,0.5   c0,0.1-0.1,0.2-0.197,0.2c-0.303,0.2-0.697,0.2-1,0.3h-0.398c-0.199,0-0.199,0.1-0.199,0.3c0,0.2,0,0.3,0.199,0.3l0,0h0.398h0.898   h1.699h1.801h0.699h0.301c0.199,0,0.199,0,0.199-0.2v-0.2c0-0.2-0.1-0.3-0.299-0.3h-0.5c-0.5,0-0.9-0.1-1.201-0.5   c-0.1-0.3-0.199-0.7-0.1-1c0-0.3,0-0.4,0-0.5v-4h0.697c0.803,0,1,0.3,2,2.2c0.604,1.5,1.5,2.8,2.604,3.9c0.699,0.6,1.6,0.9,2.5,0.9   c0.6,0,1.199-0.1,1.799-0.2C348.601,66.117,348.601,66.017,348.601,65.817L348.601,65.817z M342.902,55.317   c0,1.9-1.4,3.1-3.604,3.1h-0.396v-5.9h0.1c0.1,0,0.201,0,0.301,0C341.601,52.417,342.902,53.417,342.902,55.317L342.902,55.317z"/>
	<path fill="#FFFFFF" d="M363.302,62.117c0-1-0.301-1.9-1-2.6c-0.801-0.7-1.6-1.3-2.6-1.8c-1-0.4-1.9-1-2.604-1.7   c-0.396-0.3-0.6-0.8-0.6-1.3c0.1-1.3,1.201-2.2,2.5-2.1h0.1c1.4-0.1,2.701,0.9,3,2.3c0.104,0.2,0.104,0.3,0.305,0.3   c0.301,0,0.5-0.1,0.5-0.3v-0.1v-0.2l-0.305-1.7c0-0.1,0-0.1,0-0.2c0-0.4-0.1-0.5-0.299-0.6c-0.896-0.4-2-0.7-3-0.7   c-2.801,0-4.701,1.5-4.701,3.8c0,1.1,0.5,2.2,1.4,2.9c0.701,0.5,1.398,1,2.1,1.4c1,0.4,1.9,1,2.604,1.8c0.396,0.4,0.6,0.9,0.6,1.5   c-0.1,1.5-1.301,2.6-2.801,2.6h-0.1c-1.5,0-2.9-1-3.4-2.4l-0.199-0.5c0-0.1-0.1-0.2-0.201-0.2c-0.299,0-0.6,0.1-0.6,0.3   c0,0.1,0,0.1,0,0.2v0.3l0.4,2c0,0.1,0,0.1,0,0.2c0.1,0.4,0.1,0.5,0.396,0.7c1,0.4,2.104,0.6,3.199,0.6   C361.101,66.517,363.203,64.817,363.302,62.117L363.302,62.117z"/>
	<path fill="#FFFFFF" d="M375.302,65.817v-0.2c0-0.1-0.1-0.1-0.301-0.2l-0.5-0.1c-1-0.1-1.199-0.3-1.199-1.2v-0.7v-9   c0,0,0-0.3,0-0.7c0-0.1,0-0.3,0-0.4c0-0.2,0.104-0.4,0.299-0.6c0.4-0.2,0.9-0.3,1.4-0.3c0.201,0,0.301-0.1,0.301-0.3v-0.1   c0-0.2,0-0.3-0.301-0.3h-0.5h-0.9h-1.396h-1.801h-1h-0.102c-0.201,0-0.201,0-0.201,0.2v0.1v0.1c0,0.3,0,0.3,0.201,0.3   c0.5,0,0.9,0.1,1.4,0.3c0.299,0.2,0.299,0.5,0.299,1.7v9c0,1.1-0.1,1.5-0.299,1.7c-0.4,0.2-0.9,0.3-1.4,0.3   c-0.201,0-0.301,0.1-0.301,0.4v0.1c0,0.2,0.1,0.2,0.301,0.2h0.299h0.701c0.699,0,1.199,0,1.4,0h1c0.299,0,0.799,0,1.396,0   c0.305,0,0.604,0,0.701,0h0.299C375.203,66.117,375.203,66.117,375.302,65.817L375.302,65.817z"/>
	<path fill="#FFFFFF" d="M393.001,52.017c0-0.2-0.1-0.3-0.299-0.3h-0.5h-0.701c-0.1,0-0.699,0-1.6,0h-3.4h-3h-1.299h-1.4   c-0.301,0-0.301,0-0.301,0.1c-0.1,0.2-0.1,0.4-0.1,0.7l-0.199,1.9c0,0.1,0,0.3,0,0.4l0,0c0,0.1,0.199,0.2,0.5,0.2   c0.1,0,0.1,0,0.199-0.1c0.1-0.8,0.5-1.4,1.195-1.8c1-0.3,2-0.4,3.104-0.3h0.299v10.6c0,1.2-0.1,1.5-0.4,1.7c-0.5,0.2-1,0.3-1.5,0.3   c-0.396,0-0.5,0.1-0.5,0.3v0.1c0,0.2,0.104,0.3,0.201,0.3h0.299c0.201,0,0.604,0,1,0c0.805,0,1.5,0,2,0h2.201   c0.4,0,0.604,0,0.699,0h0.301c0.299,0,0.4,0,0.4-0.3v-0.2c0-0.1-0.104-0.2-0.604-0.2s-1-0.1-1.396-0.2c-0.4-0.2-0.5-0.5-0.5-1.8   v-10.6h0.896c0.701,0,1.4,0,1.805,0.1c0.301,0,0.6,0.1,0.801,0.2c0.396,0.2,0.699,0.7,0.799,1.6c0,0.3,0.1,0.4,0.4,0.4   c0.3,0,0.301,0,0.396-0.3v-0.3v-0.5l0.104-1.5v-0.2v-0.3H393.001L393.001,52.017z"/>
	<path fill="#FFFFFF" d="M412.302,52.117c0-0.3,0-0.3-0.201-0.3l0,0h-0.299h-0.701h-1.396c-0.4,0-0.604,0-1.5,0h-0.801   c-0.104,0-0.199,0-0.305,0l0,0c-0.195,0-0.299,0.1-0.299,0.3c0,0.2,0,0.3,0.104,0.3h0.1h0.4c0.695,0,1.1,0.2,1.1,0.6   c-0.1,0.5-0.299,1-0.6,1.4l-2.4,4.2l-2.699-4.4c-0.2-0.3-0.396-0.7-0.5-1.2c0-0.3,0.3-0.5,1-0.6h0.5c0.3,0,0.3-0.1,0.3-0.4   c0-0.3,0-0.4-0.3-0.3h-0.398h-2.802c-0.8,0-1.396,0-1.8,0c-0.301,0-0.5,0-0.6,0h-0.301l0,0c-0.199,0-0.199,0.1-0.199,0.4   c0,0.3,0,0.3,0.199,0.3h0.301c0.799,0.1,1.1,0.3,1.699,1.4c0.1,0.1,0.195,0.3,0.301,0.5l3.6,5.6v3.4c0,1.2,0,1.5-0.301,1.7   c-0.5,0.2-1,0.3-1.5,0.3c-0.399,0-0.5,0.1-0.5,0.3v0.1c0,0.2,0,0.3,0.301,0.3l0,0h0.3h1.104h1.799h2h0.9h0.5l0,0   c0.195,0,0.195,0,0.195-0.2v-0.2c0-0.2,0-0.3-0.6-0.3c-1.299-0.1-1.699-0.2-1.799-0.5c-0.104-0.3-0.201-0.6-0.104-0.9   c0-0.3,0-0.5,0-0.6v-3.5l3.604-5.6c0.799-1.2,0.896-1.4,1.299-1.6c0.301-0.1,0.6-0.2,0.9-0.3   C412.203,52.417,412.203,52.417,412.302,52.117L412.302,52.117z"/>
	<path fill="#FFFFFF" d="M443.302,58.317c0.104-3.7-2.801-6.8-6.6-6.9c-0.104,0-0.301,0-0.4,0c-4.201-0.1-7.701,3.2-7.896,7.5   c0,0.2,0,0.4,0,0.5c-0.199,3.8,2.801,7,6.5,7.2c0.195,0,0.396,0,0.6,0c4.4,0,7.5-3.2,7.701-7.9   C443.302,58.617,443.302,58.517,443.302,58.317L443.302,58.317z M441.001,59.317c0,3.5-2,6-5,6s-5.199-2.9-5.199-6.8c0-3.6,2-6,5-6   S441.001,55.417,441.001,59.317L441.001,59.317z"/>
	<path fill="#FFFFFF" d="M459.203,54.817L459.203,54.817c0-0.1,0-0.2,0-0.3l-0.201-2v-0.4c0-0.3-0.1-0.4-0.299-0.4   c-0.104,0-0.201,0-0.201,0h-2.6h-2.4c-0.799,0-1.6,0-2.4,0c-0.6,0-1,0-1.195,0c-0.199,0-0.305,0-0.5,0l0,0   c-0.199,0-0.199,0.1-0.199,0.3c0,0.2,0,0.3,0.1,0.3c0.104,0,0.104,0,0.4,0.1c1.199,0,1.396,0.3,1.396,2v8.9c0,0.5,0,1-0.101,1.5   c-0.1,0.3-0.6,0.5-1.299,0.5c-0.5,0-0.5,0-0.5,0.4c0,0.4,0,0.3,0.299,0.3h0.301h0.8h1.804h2h1.396h0.3c0.2,0,0.2,0,0.2-0.3v-0.1   c0-0.2-0.1-0.3-0.5-0.3c-0.7,0-1.396-0.1-2.1-0.4c-0.301-0.1-0.301-0.4-0.301-1.1v-4.7h1.1h1.101h1c0.2,0,0.399,0.1,0.604,0.1   c0.1,0,0.199,0.1,0.199,0.2c0.195,0.3,0.301,0.7,0.301,1c0,0.5,0.1,0.6,0.299,0.6c0.201,0,0.4,0,0.4-0.3l0,0c0-0.1,0-0.3,0-0.5   c0-0.5,0-0.9,0-1.1v-0.4c0-0.8,0-1.6,0-1.9c0-0.1,0-0.2,0-0.3c0-0.2-0.104-0.3-0.305-0.3c-0.195,0-0.299,0.1-0.299,0.3   c-0.1,0.8-0.201,1.2-0.6,1.3c-0.4,0.1-0.9,0.2-2.801,0.2h-0.9v-5.3h0.4h0.695c1-0.1,2,0,3,0.3c0.5,0.3,0.805,0.7,1,1.2l0.104,0.5   c0.1,0.1,0.1,0.2,0.199,0.2c0.301,0,0.5-0.1,0.5-0.2L459.203,54.817z"/>
	<path fill="#FFFFFF" d="M378.402,147.618c0,3-2.5,6.6-6.305,6.6c-2,0-3.6-1.6-3.6-3.6c0-0.101,0-0.201,0-0.4c0-3,2.5-6.6,6.301-6.6   c2,0,3.604,1.6,3.604,3.6C378.402,147.417,378.402,147.518,378.402,147.618z M370.402,151.018c0,1.602,0.695,2.396,1.695,2.396   c1.5,0,4.4-3.5,4.4-6.698c0-1.601-0.699-2.399-1.699-2.399C373.203,144.417,370.402,147.917,370.402,151.018z"/>
	<path fill="#FFFFFF" d="M218.702,143.217c-0.2,0.5-5.1,7.602-5.1,7.602c-0.601,0.803-1.9,2.803-2.101,3.303l-1.2,0.102   c0.1-4.898,0.801-12.602,0.801-14.199c0-1.604-0.201-1.801-1.9-1.801v-0.803c0.699,0,2.1,0.104,3.5,0.104c0.9,0,1.9,0,2.8-0.104   v0.701c-1.7,0.102-2.101,0.5-2.2,2l-0.6,9.5c0,0.299,0,0.5,0,0.602l0.6-0.803c0.4-0.602,1-1.396,1.6-2.299   c1.301-1.803,2.801-4,3.9-5.604l0.1-2.396c0-0.604-0.399-1-1.399-1v-0.805c0.399,0,1.601,0.104,2.8,0.104c1.2,0,1.9,0,2.6-0.104   v0.701c-1.5,0.102-1.899,0.299-2,2.5l-0.399,6.602c-0.101,1.398-0.3,3.197-0.3,3.6c0.1,0.104,7.4-10.197,7.4-11.801   c0-0.5-0.4-0.799-1.201-0.799v-0.803c0.5,0,1.4,0.102,2.201,0.102c1,0,1.799,0,2.299-0.102v0.701c-1.1,0.102-1.6,0.396-2.399,1.896   c-2.899,4.802-6,9.5-9.399,14h-1.201L218.702,143.217L218.702,143.217z"/>
	<path fill="#FFFFFF" d="M232.501,147.816c0,0.101,0,0.101,0,0.201V147.816z M232.702,147.316c-0.1,0.201-0.2,0.398-0.2,0.5   l-0.101,0.101l0.101-0.101l0.399-0.5c0.301-0.399,0.701-0.899,1.201-1.5c0.899-1.102,2.1-2.198,3.299-2.198   c1,0,1.601,0.6,1.601,1.899c-0.101,1.299-0.5,2.601-1,3.896c-0.3,0.701-0.5,1.302-0.7,1.701c-0.1,0.299-0.199,0.601-0.3,0.897   c0,0.103,0,0.198,0.2,0.198c0.3-0.101,0.6-0.301,0.9-0.601c0.399-0.301,0.699-0.7,0.899-0.899l0.5,0.399   c-1.101,1.3-2.601,3-4.101,3c-0.399,0.101-0.799-0.2-0.799-0.602c0-0.103,0-0.103,0-0.199c0.1-0.5,0.199-1,0.399-1.5   c0.2-0.602,0.601-1.301,0.899-2c0.601-1.102,1-2.399,1.301-3.602c0-0.5-0.1-0.699-0.6-0.699c-1.5,0-4.701,4-5.9,8   c-0.1,0.301-0.4,0.397-1,0.397c-0.6,0-0.801-0.101-0.801-0.397c0.4-1.199,0.801-2.398,1.301-3.603c0.699-1.897,1.6-4,2.1-5.601   c0.5-1.302,1-2.699,1.301-3.802c0.299-0.698,0.5-1.397,0.6-2.198c0-0.199-0.1-0.302-0.6-0.399c-0.5-0.101-0.801-0.198-0.801-0.5   c0-0.101,0.1-0.198,0.2-0.3c0.101,0,0.2-0.103,0.399-0.103h2.701c0.299,0,0.399,0.103,0.399,0.302c0,0.198-1,3.198-2.399,6.897   C233.401,145.816,233.001,146.816,232.702,147.316L232.702,147.316z"/>
	<path fill="#FFFFFF" d="M246.801,150.217l-0.199,0.199c-0.101,0.201-0.301,0.4-0.5,0.701c-1.601,2.299-2.801,3-3.9,3   c-0.9,0-1.6-0.701-1.6-2.102c0-2,2.299-8.199,6.899-8.199c0.3,0,0.601,0,0.899,0.1l0.301,0.102h0.199c0.101,0,0.101,0,0.101-0.102   c0.101-0.1,0.101-0.1,0.101-0.199l0.1-0.1l0.1-0.102c0.1-0.104,0.2-0.104,0.301-0.104c0.199,0,0.399,0.104,0.5,0.201   c0.199,0.101,0.399,0.299,0.399,0.601c-0.101,0.5-0.3,0.899-0.399,1.399c-0.301,0.697-0.601,1.601-1,2.5   c-0.601,1.299-1,2.697-1.4,4.101c0,0.103,0,0.198,0.1,0.302c0,0,0,0,0.1,0c0.201,0,0.301-0.104,0.4-0.302   c0.2-0.198,0.4-0.397,0.6-0.698c0.201-0.199,0.4-0.5,0.601-0.699c0.101-0.103,0.2-0.199,0.2-0.199   c0.1-0.102,0.199-0.102,0.199-0.102c0.201,0,0.4,0.102,0.4,0.301s-2,3.199-3.699,3.199c-0.601,0-0.9-0.302-0.9-1   c0.1-0.604,0.199-1.199,0.5-1.802c0.1-0.302,0.199-0.5,0.3-0.698l0.101-0.199C246.702,150.316,246.702,150.217,246.801,150.217   L246.801,150.217z M248.102,145.816c0.1-0.602-0.301-1.102-0.9-1.198c-0.1,0-0.1,0-0.2,0c-2.2,0-4.601,4.198-4.601,7   c0,0.799,0.201,0.899,0.601,0.899C244.901,152.518,248.102,147.118,248.102,145.816L248.102,145.816z"/>
	<path fill="#FFFFFF" d="M252.602,154.018c-0.201,0-0.4-0.201-0.4-0.398c0.1-0.4,0.199-0.803,0.4-1.201   c0.199-0.602,0.5-1.396,0.799-2.299c0.5-1.4,0.9-2.803,1.201-4.201c0-0.396-0.101-0.5-0.201-0.5s-0.399,0.201-0.799,0.604   c-0.4,0.396-0.601,0.697-0.801,0.896l-0.199,0.301l-0.101,0.102l-0.101,0.1c-0.199,0-0.299-0.1-0.299-0.299   c0-0.5,2.299-3.301,3.399-3.301c0.399,0,0.8,0.199,0.8,0.699c0,0.102,0,0.102,0,0.198c-0.1,0.698-0.199,1.399-0.4,2.103   l-0.299,1.199c-0.101,0.301-0.101,0.602-0.101,0.602c0.101-0.102,0.2-0.201,0.2-0.301c0.4-0.603,1-1.699,1.6-2.699   c0.602-1,1.4-1.801,2.102-1.801c0.698,0,0.898,0.6,0.898,1.301c0,0.699-0.3,1.299-0.8,1.299c-0.399,0-0.7-0.199-0.8-0.6l-0.1-0.199   c0,0,0-0.102-0.101-0.102c0-0.104-0.101-0.104-0.2-0.104c-0.398,0-1.6,1.398-3.9,6.604l-0.699,1.602c0,0.1-0.1,0.199-0.2,0.299   c-0.101,0.102-0.2,0.102-0.3,0.102L252.602,154.018L252.602,154.018z"/>
	<path fill="#FFFFFF" d="M263.402,152.717c0.699-0.1,1.396-0.301,1.896-0.699c0.304-0.199,0.5-0.396,0.7-0.5l0.2-0.199   c0.1-0.102,0.1-0.102,0.196-0.102c0.199,0,0.304,0.102,0.304,0.301c-1,1.5-2.604,2.398-4.4,2.699c-1.5,0.102-2.699-1.1-2.8-2.5   c0-0.1,0-0.199,0-0.301c0-3.699,4.2-7.699,7.104-7.699c1-0.1,2,0.602,2.101,1.699v0.102c0,2.104-3.399,2.801-4.899,2.801   c-0.5,0-0.801,0-1.101,0c-0.601,0.898-1,1.898-1,3c-0.101,0.803,0.5,1.5,1.3,1.602   C263.202,152.816,263.301,152.816,263.402,152.717L263.402,152.717z M266.402,144.417c-1.2,0-2.604,2.103-3,2.899   c2.3-0.102,3.8-0.799,3.8-2C267.202,144.917,266.902,144.518,266.402,144.417C266.402,144.518,266.402,144.518,266.402,144.417   L266.402,144.417z"/>
	<path fill="#FFFFFF" d="M287.301,143.217c-0.199,0.5-5.1,7.602-5.1,7.602c-0.602,0.803-1.9,2.803-2.102,3.303l-1.199,0.102   c0.101-4.898,0.801-12.602,0.801-14.199c0-1.604-0.2-1.801-1.9-1.801v-0.803c0.7,0,2.102,0.104,3.5,0.104c0.9,0,1.9,0,2.801-0.104   v0.701c-1.699,0.102-2.101,0.5-2.199,2l-0.602,9.498c0,0.299,0,0.5,0,0.6l0.602-0.801l1.603-2.299c1.3-1.803,2.8-4,3.897-5.602   l0.103-2.398c0-0.602-0.397-1-1.397-1v-0.803c0.397,0,1.602,0.102,2.801,0.102s1.896,0,2.699-0.102v0.701   c-1.5,0.102-1.898,0.299-2,2.5l-0.398,6.602c-0.102,1.398-0.3,3.197-0.3,3.6c0.1,0.104,7.396-10.197,7.396-11.801   c0-0.5-0.396-0.799-1.197-0.799v-0.803c0.5,0,1.397,0.102,2.197,0.102c1,0,1.803,0,2.303-0.102v0.701   c-1.103,0.102-1.603,0.396-2.398,1.896c-2.9,4.802-6,9.5-9.4,14h-1.199L287.301,143.217L287.301,143.217z"/>
	<path fill="#FFFFFF" d="M300.001,150.217l-0.2,0.199c-0.1,0.201-0.3,0.4-0.5,0.701c-1.6,2.299-2.8,3-3.898,3   c-0.897,0-1.602-0.701-1.602-2.102c0-2,2.301-8.199,6.9-8.199c0.3,0,0.6,0,0.897,0.1l0.303,0.102h0.197   c0.103,0,0.103,0,0.103-0.102c0.1-0.1,0.1-0.1,0.1-0.199l0.103-0.1l0.102-0.102c0.103-0.104,0.2-0.104,0.3-0.104   c0.2,0,0.4,0.104,0.5,0.201c0.2,0.101,0.5,0.299,0.5,0.601c-0.1,0.5-0.3,0.899-0.5,1.399c-0.3,0.697-0.6,1.601-1,2.5   c-0.6,1.299-1,2.697-1.396,4.101c0,0.103,0,0.198,0.1,0.302c0,0,0,0,0.102,0c0.199,0,0.302-0.104,0.5-0.302   c0.199-0.198,0.398-0.397,0.603-0.698c0.2-0.199,0.397-0.5,0.602-0.699c0.103-0.103,0.198-0.199,0.198-0.199   c0.104-0.102,0.2-0.102,0.2-0.102c0.2,0,0.397,0.102,0.397,0.301s-2,3.199-3.697,3.199c-0.603,0-0.9-0.302-0.9-1   c0.104-0.604,0.2-1.199,0.5-1.802c0.104-0.302,0.2-0.5,0.305-0.698l0.1-0.199C299.902,150.316,299.902,150.217,300.001,150.217   L300.001,150.217z M301.301,145.816c0.103-0.602-0.3-1.102-0.897-1.198c-0.103,0-0.103,0-0.198,0c-2.2,0-4.604,4.198-4.604,7   c0,0.799,0.199,0.899,0.604,0.899C298.101,152.518,301.301,147.118,301.301,145.816L301.301,145.816z"/>
	<path fill="#FFFFFF" d="M309.001,147.316c0.1-0.102,0.201-0.198,0.301-0.299c0.102-0.201,0.4-0.5,0.602-0.803   c0.303-0.398,0.602-0.802,1-1.101c0.697-0.802,1.602-1.302,2.697-1.399c1,0,1.701,0.803,1.803,1.698v0.104   c-0.197,1.299-0.602,2.601-1.197,3.799c-0.303,0.701-0.604,1.302-0.803,1.802c-0.197,0.299-0.303,0.698-0.398,1   c0,0.198,0.103,0.198,0.103,0.198c0.802-0.299,1.397-0.799,2-1.399l0.5,0.399c-1.397,1.601-3.5,2.898-4.5,2.898   c-0.397,0-0.698-0.197-0.698-0.601v-0.103c0.1-0.397,0.301-0.802,0.5-1.199c0.301-0.603,0.698-1.399,1-2.198   c0.698-1.302,1.198-2.701,1.5-4.103c0-0.603-0.302-0.802-0.699-0.802c-1.5,0-4.301,3.603-5.603,7.103l-0.397,1.101   c-0.103,0.201-0.103,0.399-0.201,0.604l-0.1,0.101h-0.604c-0.201,0-0.398,0-0.601,0c-0.103,0-0.2-0.101-0.2-0.201   c0.1-0.5,0.2-1,0.4-1.397c0.197-0.699,0.6-1.5,0.896-2.397c0.604-1.397,1-2.802,1.301-4.201c0-0.101,0-0.196,0-0.196   c-0.301,0-0.801,0.397-1.301,0.801l-0.699,0.601l-0.197,0.199c-0.104,0.101-0.201,0.101-0.201,0.101   c-0.199,0-0.299-0.101-0.299-0.3l0,0c0-0.5,3.1-3.301,4.197-3.301c0.398,0,0.803,0.301,0.898,0.7v0.101   c-0.104,0.601-0.199,1.199-0.398,1.699l-0.301,0.801L309.001,147.316L309.001,147.316L309.001,147.316z"/>
	<path fill="#FFFFFF" d="M323.101,150.217l-0.197,0.199c-0.102,0.201-0.303,0.4-0.5,0.701c-1.602,2.299-2.803,3-3.898,3   c-0.897,0-1.602-0.701-1.602-2.102c0-2,2.303-8.199,6.898-8.199c0.299,0,0.602,0,0.9,0.1l0.299,0.102h0.201c0.1,0,0.1,0,0.1-0.102   c0.102-0.1,0.102-0.1,0.102-0.199l0.102-0.1l0.103-0.102c0.103-0.104,0.198-0.104,0.302-0.104c0.198,0,0.396,0.104,0.5,0.201   c0.198,0.101,0.5,0.299,0.5,0.601c-0.104,0.5-0.302,1-0.5,1.399c-0.302,0.697-0.604,1.601-1,2.5c-0.604,1.299-1,2.697-1.4,4.101   c0,0.103,0,0.198,0,0.302c0,0,0,0,0.102,0c0.2,0,0.303-0.104,0.5-0.302c0.2-0.198,0.398-0.397,0.604-0.698   c0.199-0.199,0.396-0.5,0.601-0.699c0.103-0.103,0.198-0.199,0.198-0.199c0.104-0.102,0.201-0.102,0.302-0.102   c0.198,0,0.399,0.102,0.399,0.301s-2,3.199-3.701,3.199c-0.6,0-0.896-0.302-0.896-1c0.102-0.604,0.198-1.199,0.5-1.802   c0.102-0.302,0.198-0.5,0.301-0.698l0.1-0.199C323.203,150.316,323.203,150.316,323.101,150.217L323.101,150.217z M324.501,145.816   c0.1-0.602-0.299-1.102-0.9-1.198c-0.1,0-0.1,0-0.197,0c-2.197,0-4.602,4.198-4.602,7c0,0.799,0.199,0.899,0.602,0.899   C321.302,152.518,324.501,147.118,324.501,145.816L324.501,145.816z"/>
	<path fill="#FFFFFF" d="M332.601,147.316c0.104-0.102,0.201-0.198,0.303-0.299c0.102-0.201,0.398-0.5,0.602-0.803   c0.301-0.398,0.603-0.802,1-1.101c0.701-0.802,1.603-1.302,2.701-1.399c1,0,1.697,0.803,1.799,1.698v0.104   c-0.199,1.299-0.602,2.601-1.199,3.799c-0.301,0.701-0.6,1.302-0.801,1.802c-0.199,0.299-0.299,0.698-0.397,1   c0,0.198,0.103,0.198,0.103,0.198c0.799-0.299,1.397-0.799,2-1.399l0.5,0.399c-1.4,1.601-3.5,2.898-4.5,2.898   c-0.4,0-0.701-0.197-0.701-0.601v-0.103c0.102-0.397,0.301-0.802,0.5-1.199c0.301-0.603,0.701-1.399,1-2.198   c0.701-1.302,1.201-2.701,1.5-4.103c0-0.603-0.299-0.802-0.699-0.802c-1.5,0-4.301,3.603-5.6,7.103l-0.4,1.101   c-0.1,0.201-0.1,0.399-0.199,0.604l-0.102,0.101h-0.6c-0.199,0-0.4,0-0.604,0c-0.1,0-0.198-0.101-0.198-0.201   c0.103-0.5,0.198-1,0.397-1.397c0.201-0.699,0.603-1.5,0.898-2.397c0.602-1.397,1-2.802,1.301-4.201c0-0.101,0-0.196,0-0.196   c-0.301,0-0.801,0.397-1.301,0.801l-0.699,0.601l-0.199,0.199c-0.102,0.101-0.199,0.101-0.199,0.101   c-0.198,0-0.301-0.101-0.301-0.3l0,0c0-0.5,3.103-3.301,4.199-3.301c0.396,0,0.801,0.301,0.896,0.7v0.101   c-0.1,0.601-0.197,1.199-0.396,1.699l-0.301,0.799L332.601,147.316L332.601,147.316L332.601,147.316z"/>
	<path fill="#FFFFFF" d="M343.703,151.316c-0.104-0.102-0.301-0.102-0.4-0.198l-0.301-0.201c-0.699,0.399-0.799,0.603-0.799,0.801   c0,0.199,0.299,0.603,0.896,0.9c0.604,0.299,1.398,0.698,2.199,1.1c1.604,0.802,3.299,1.802,3.299,2.9   c0,1.6-1.799,3.399-5.997,3.399c-2.603,0-4.302-1.303-4.302-2.701c0-1.102,1-2.102,3.9-3.102l-0.303-0.197   c-0.197-0.103-0.398-0.303-0.602-0.5c-0.5-0.303-0.701-0.899-0.801-1.399c0-0.5,0.301-0.9,0.701-1.199   c0.299-0.201,0.799-0.399,1.198-0.701c-0.5-0.698-0.802-1.5-0.899-2.299c0-2.399,2-4.301,4.301-4.301c0.699,0,1.4,0.198,2,0.6   l0.299,0.199l0.201,0.201l0.104,0.1l0.301-0.1l0.5-0.201c0.396-0.199,0.799-0.299,1.199-0.299c0.5-0.101,0.896,0.299,1,0.799   c0,0.103,0,0.103,0,0.201c0,0.399-0.4,0.799-0.803,0.799c0,0,0,0-0.102,0c-0.299,0-0.601-0.101-0.799-0.101l-0.4-0.102H349.1   c-0.102,0.399,0.104,0.602,0.104,1.803c0,2.299-1.9,4.101-4.201,4.197C344.501,151.518,344.101,151.417,343.703,151.316   L343.703,151.316z M343.501,159.118c2.201,0,3.4-0.802,3.4-1.701c0-0.699-0.604-1.101-1.4-1.5c-0.4-0.199-0.9-0.397-1.299-0.601   c-0.4-0.198-0.801-0.399-1.104-0.602c-1.801,0.803-2.697,1.399-2.697,2.399S341.703,159.217,343.501,159.118L343.501,159.118z    M344.802,150.618c1.9,0,2.9-2.701,2.9-4.101c0-1.104-0.5-2-1.604-2c-1.799,0-2.998,2.197-2.998,4.101   C343.101,149.816,343.703,150.518,344.802,150.618L344.802,150.618z"/>
	<path fill="#FFFFFF" d="M356.703,150.217l-0.201,0.199c-0.1,0.201-0.299,0.4-0.5,0.701c-1.6,2.299-2.799,3-3.9,3   c-0.896,0-1.6-0.701-1.6-2.102c0-2,2.301-8.199,6.9-8.199c0.301,0,0.6,0,0.896,0.1l0.299,0.102h0.201c0.104,0,0.104,0,0.104-0.102   c0.1-0.1,0.1-0.1,0.1-0.199l0.1-0.1l0.104-0.102c0.1-0.104,0.199-0.104,0.299-0.104c0.201,0,0.4,0.104,0.5,0.201   c0.201,0.101,0.5,0.299,0.5,0.601c-0.1,0.5-0.299,0.899-0.5,1.399c-0.299,0.697-0.6,1.601-1,2.5c-0.6,1.299-1,2.697-1.398,4.101   c0,0.103,0,0.198,0,0.302c0,0,0,0,0.104,0c0.199,0,0.299-0.104,0.5-0.302c0.199-0.198,0.396-0.397,0.601-0.698   c0.198-0.199,0.399-0.5,0.603-0.699c0.1-0.103,0.197-0.199,0.197-0.199c0.104-0.102,0.2-0.102,0.2-0.102   c0.198,0,0.399,0.102,0.399,0.301s-2,3.199-3.701,3.199c-0.6,0-0.898-0.302-0.898-1c0.104-0.604,0.2-1.199,0.5-1.802   c0.104-0.302,0.2-0.5,0.303-0.698l0.1-0.199C356.703,150.316,356.703,150.217,356.703,150.217L356.703,150.217z M358.101,145.816   c0.104-0.602-0.299-1.102-0.896-1.198c-0.104,0-0.104,0-0.201,0c-2.199,0-4.6,4.198-4.6,7c0,0.799,0.195,0.899,0.6,0.899   C354.902,152.518,358.101,147.118,358.101,145.816L358.101,145.816z"/>
	<path fill="#FFFFFF" d="M395.203,143.217c-0.201,0.5-5.104,7.602-5.104,7.602c-0.6,0.803-1.896,2.803-2.1,3.303l-1.199,0.102   c0.104-4.898,0.799-12.602,0.799-14.199c0-1.604-0.195-1.801-1.896-1.801v-0.803c0.699,0,2.1,0.104,3.5,0.104   c0.896,0,1.896,0,2.799-0.104v0.701c-1.699,0.102-2.1,0.5-2.199,2l-0.6,9.5c0,0.299,0,0.5,0,0.602l0.6-0.803l1.604-2.299   c1.301-1.803,2.801-4,3.896-5.604l0.104-2.396c0-0.604-0.4-1-1.4-1v-0.805c0.4,0,1.602,0.104,2.801,0.104s1.9,0,2.699-0.104v0.701   c-1.5,0.102-1.898,0.299-2,2.5l-0.398,6.602c-0.102,1.398-0.301,3.197-0.301,3.6c0.104,0.104,7.4-10.197,7.4-11.801   c0-0.5-0.4-0.799-1.201-0.799v-0.803c0.5,0,1.4,0.102,2.201,0.102c1,0,1.799,0,2.299-0.102v0.701c-1.1,0.102-1.6,0.396-2.398,1.896   c-2.896,4.802-6,9.5-9.396,14h-1.205L395.203,143.217L395.203,143.217z"/>
	<path fill="#FFFFFF" d="M407.902,150.217l-0.199,0.199c-0.104,0.201-0.301,0.4-0.5,0.701c-1.604,2.299-2.801,3-3.9,3   c-0.896,0-1.6-0.701-1.6-2.102c0-2,2.299-8.199,7-8.199c0.299,0,0.6,0,0.896,0.1l0.305,0.102h0.195c0.104,0,0.104,0,0.104-0.102   c0.1-0.1,0.1-0.1,0.1-0.199l0.104-0.1l0.1-0.102c0.102-0.104,0.201-0.104,0.301-0.104c0.199,0,0.4,0.104,0.5,0.201   c0.199,0.101,0.5,0.299,0.5,0.601c-0.1,0.5-0.301,0.899-0.5,1.399c-0.301,0.697-0.6,1.601-1,2.5c-0.6,1.299-1,2.697-1.396,4.101   c0,0.103,0,0.198,0,0.302c0,0,0,0,0.1,0c0.201,0,0.301-0.104,0.5-0.302c0.201-0.198,0.4-0.397,0.602-0.698   c0.199-0.199,0.398-0.5,0.604-0.699c0.102-0.103,0.199-0.199,0.199-0.199c0.1-0.102,0.1-0.102,0.197-0.102   c0.199,0,0.398,0.102,0.398,0.301s-2,3.199-3.699,3.199c-0.6,0-0.896-0.302-0.896-1c0.1-0.604,0.197-1.199,0.5-1.802   c0.1-0.302,0.197-0.5,0.301-0.698l0.102-0.199C407.902,150.316,407.902,150.217,407.902,150.217L407.902,150.217z M409.302,145.816   c0.104-0.602-0.301-1.102-0.896-1.198c-0.104,0-0.104,0-0.199,0c-2.201,0-4.604,4.198-4.604,7c0,0.799,0.201,0.899,0.604,0.899   C406.101,152.518,409.302,147.018,409.302,145.816L409.302,145.816z"/>
	<path fill="#FFFFFF" d="M413.203,146.717l0.199-0.199c0.6-0.699,2.301-2.602,3.5-2.602c0.396,0,0.801,0.301,0.801,0.701   c0,0,0,0,0,0.1c-0.201,1.5-0.701,3-1.301,4.4c-0.305,0.799-0.699,1.6-0.9,2.199c-0.199,0.397-0.299,0.801-0.4,1.199   c0,0.198,0,0.198,0.201,0.198c0.4-0.101,0.699-0.302,1-0.601c0.4-0.303,0.699-0.604,1-1l0.104-0.104l0.5,0.398l-0.104,0.104   c-0.201,0.199-0.5,0.5-0.801,0.801c-0.299,0.302-0.6,0.601-0.9,0.898c-0.6,0.602-1.5,1-2.299,1c-0.6,0-0.801-0.199-0.801-0.602   c0.301-1.398,0.701-2.801,1.301-4.103c0.299-0.801,0.699-1.603,0.9-2.198c0.199-0.399,0.299-0.899,0.396-1.399   c0-0.198-0.1-0.198-0.195-0.198c-0.305,0.102-0.604,0.301-0.9,0.5c-0.299,0.301-0.699,0.698-0.799,0.801l-0.104,0.103   L413.203,146.717L413.203,146.717z M418.001,137.518c0.6,0,1.1,0.5,1.1,1.102c0,0.6-0.5,1.1-1.1,1.1s-1.1-0.5-1.1-1.1   C416.902,138.018,417.402,137.518,418.001,137.518L418.001,137.518z"/>
	<path fill="#FFFFFF" d="M423.501,145.518c0.1-0.104,0.201-0.201,0.4-0.302c0.301-0.198,0.6-0.5,1-0.698   c0.801-0.604,1.801-1,2.801-1.104c1-0.1,1.896,0.701,2,1.701v0.101c0,1.899-2.701,3.198-4,3.698c0.299,1.9,0.6,3.802,1.1,5.701   c0.699,2.5,1.604,4.699,2.604,4.699c0.301,0,0.396-0.199,0.396-0.199c0-0.102-0.1-0.201-0.1-0.201l-0.104-0.1h0.104h0.1h0.199   c0.301,0,0.5,0.301,0.5,0.5l0,0c0,0.396-0.5,0.896-1.299,0.896c-2.201,0-4.604-4.5-5.301-10.396l-1,0.301l-1,0.299l-0.699,2.201   c-0.104,0.398-0.301,0.898-0.5,1.299c-0.104,0.201-0.301,0.302-0.5,0.302h-0.9c-0.396,0-0.5-0.198-0.5-0.399   c0-0.197,0.799-2.5,2.699-8c1-2.799,1.6-4.601,2-5.601c0.201-0.5,0.4-1.101,0.5-1.698c0-0.104,0-0.201-0.299-0.302   c-0.4-0.101-0.9-0.101-1.301-0.101H422.3v-0.801h3.7c0.201,0,0.4,0,0.4,0.301c-0.104,0.5-0.199,0.898-0.4,1.398l-2.1,5.697   l-0.199,0.699L423.501,145.518c0,0.198,0,0.198,0,0.198l0,0V145.518z M422.302,149.217c2-0.5,5.604-2.1,5.604-3.801   c0-0.398-0.199-0.799-0.9-0.799c-1,0-3.399,1.699-4,2.299L422.302,149.217L422.302,149.217z"/>
	<path fill="#FFFFFF" d="M436.101,150.217l-0.195,0.199c-0.104,0.201-0.305,0.4-0.5,0.701c-1.604,2.299-2.805,3-3.9,3   c-0.899,0-1.6-0.701-1.6-2.102c0-2,2.301-8.199,6.896-8.199c0.3,0,0.604,0,0.9,0.1l0.299,0.102h0.201c0.1,0,0.1,0,0.1-0.102   c0.104-0.1,0.104-0.1,0.104-0.199l0.1-0.1l0.101-0.102c0.104-0.104,0.2-0.104,0.304-0.104c0.196,0,0.396,0.104,0.5,0.201   c0.196,0.101,0.5,0.299,0.5,0.601c-0.104,0.5-0.304,0.899-0.5,1.399c-0.304,0.697-0.604,1.601-1,2.5   c-0.604,1.299-1,2.697-1.4,4.101c0,0.103,0,0.198,0,0.302c0,0,0,0,0.102,0c0.2,0,0.303-0.104,0.5-0.302   c0.2-0.198,0.398-0.397,0.604-0.698c0.199-0.199,0.396-0.5,0.601-0.699c0.103-0.103,0.198-0.199,0.198-0.199   c0.104-0.102,0.201-0.102,0.201-0.102c0.199,0,0.398,0.102,0.398,0.301s-2,3.199-3.699,3.199c-0.603,0-0.9-0.302-0.9-1   c0.104-0.604,0.201-1.199,0.5-1.802c0.104-0.302,0.201-0.5,0.302-0.698l0.103-0.199   C436.001,150.316,436.001,150.217,436.101,150.217L436.101,150.217z M437.402,145.816c0.1-0.602-0.305-1.102-0.9-1.198   c-0.1,0-0.1,0-0.199,0c-2.201,0-4.6,4.198-4.6,7c0,0.799,0.199,0.899,0.6,0.899C434.203,152.518,437.402,147.118,437.402,145.816   L437.402,145.816z"/>
	<path fill="#FFFFFF" d="M446.703,143.917h1c0.299,0,0.396,0.301,0.396,0.701c0,0.399-0.195,0.698-0.5,0.698h-1.195   c-0.199,0-0.305,0.101-0.5,0.398l-2,5.303l-0.199,0.601c-0.104,0.1-0.104,0.299-0.104,0.399c0,0.1,0,0.197,0.305,0.197   c0.6-0.197,1.1-0.5,1.5-0.898l0.896-0.698l0.299-0.201l0.104-0.101h0.1c0.199,0,0.3,0.101,0.3,0.302l0,0   c0,0.198-0.5,0.698-1.8,1.799c-0.896,0.899-2,1.399-3.2,1.603c-0.396,0.103-0.896-0.199-0.896-0.699v-0.103   c0.1-0.6,0.299-1.301,0.5-1.897l2.1-5.603l0.104-0.301c0-0.101,0-0.101,0-0.199c0,0,0-0.1-0.303-0.1h-1   c-0.197,0-0.396-0.101-0.396-0.199c0-0.103,0-0.103,0-0.201c0,0,0-0.1,0.1-0.1l0.301-0.9h1.699c0.104,0,0.199,0,0.301-0.198   l0.803-1.699c0-0.103,0.1-0.103,0.197-0.198c0.199-0.103,0.398-0.103,0.604-0.103l0.396-0.101h0.303c0.1,0,0.301,0.101,0.301,0.299   v0.103v0.103l-0.105,0.396L446.703,143.917L446.703,143.917L446.703,143.917L446.703,143.917z"/>
	<path fill="#FFFFFF" d="M458.601,147.618c0,3-2.5,6.6-6.299,6.6c-2,0-3.6-1.6-3.6-3.6c0-0.101,0-0.201,0-0.4c0-3,2.5-6.6,6.299-6.6   c2,0,3.6,1.6,3.6,3.6C458.703,147.417,458.703,147.518,458.601,147.618z M450.601,151.018c0,1.602,0.701,2.396,1.701,2.396   c1.5,0,4.4-3.5,4.4-6.698c0-1.601-0.701-2.399-1.701-2.399C453.501,144.417,450.601,147.917,450.601,151.018z"/>
	<path fill="#FFFFFF" d="M179.501,141.018l0.1-0.201c0.3-0.601,0.6-1.5,1-2.299c0.2-0.302,0.3-0.701,0.6-1   c0.2-0.201,0.4-0.5,0.6-0.5c0.2,0,0.4,0.102,0.5,0.198c0.1,0.101,0.2,0.198,0.4,0.302c0.6,0.299,1.3,0.5,1.9,0.396h7   c1,0.104,2-0.1,2.799-0.6c0.201-0.104,0.4-0.199,0.601-0.199s0.399,0.199,0.399,0.5c0,0.299-0.299,2-0.6,3.799   c-0.1,0.5-0.199,0.5-0.6,0.5c-0.401,0-0.5-0.1-0.5-0.6c0-1.9-0.801-2.5-2.9-2.5c-1,0-1.3,0.199-1.6,1.699l-2.3,8.896   c-0.3,1.104-0.6,2.199-0.7,3.301c0,0.398,0.6,0.699,2.1,0.699v0.801c-1.6,0-2.6-0.102-3.9-0.102c-1,0-1.8,0-3.4,0.102v-0.695   c2-0.199,2.4-0.302,2.9-1.898l2.8-10.199c0.2-0.602,0.3-1.201,0.3-1.801c0-0.4,0-0.602-1.8-0.602c-1.8,0-2.8,0.198-4.6,2.301   L179.501,141.018L179.501,141.018z"/>
	<path fill="#FFFFFF" d="M194.801,152.717c0.7-0.1,1.4-0.301,1.9-0.699c0.3-0.199,0.5-0.396,0.699-0.5l0.201-0.199   c0.1-0.102,0.1-0.102,0.199-0.102c0.2,0,0.301,0.102,0.301,0.301c-1,1.5-2.601,2.398-4.4,2.699c-1.5,0.102-2.7-1.1-2.801-2.6   c0-0.102,0-0.201,0-0.301c0-3.699,4.201-7.699,7.101-7.699c1-0.102,2,0.6,2.101,1.699v0.1c0,2.102-3.4,2.801-4.9,2.801   c-0.5,0-0.801,0-1.1,0c-0.601,0.9-1,1.9-1,3c-0.101,0.801,0.5,1.5,1.299,1.602C194.702,152.816,194.702,152.816,194.801,152.717   L194.801,152.717z M197.801,144.417c-1.199,0-2.6,2.103-3,2.899c2.301-0.102,3.801-0.799,3.801-2   C198.602,144.917,198.301,144.518,197.801,144.417C197.801,144.518,197.801,144.518,197.801,144.417L197.801,144.417z"/>
	<polygon fill="#FFFFFF" points="298.702,141.118 304.301,141.118 304.301,142.018 298.702,142.018  "/>
	<path fill="#FFFFFF" d="M271.402,120.618v-0.701c0-0.397-0.2-0.601-0.9-0.601c-1,0-1.9-0.198-2.8-0.602   c-0.7-0.302-1.101-0.802-1.7-2.197l-0.7-1.5l-13.3-31.102c-0.5-1.1-0.601-1.2-1.399-1.2h-0.701c-0.6,0-0.699,0-0.799,0.2   c-0.101,0.2-0.301,0.6-0.601,1.1l-13,30.798c-0.899,2.201-1.2,2.899-1.899,3.5c-0.201,0.303-0.5,0.5-0.801,0.602   c-0.8,0.301-1.6,0.5-2.4,0.604c-0.5,0.102-0.6,0.197-0.6,0.896c0,0.701,0.1,0.801,0.7,0.801h1.101c2.199,0,3.899-0.1,4.799-0.1   s2.5,0.1,5,0.1h1.101c0.7,0,0.899-0.197,0.899-0.896s-0.199-1-1.199-1c-2.4-0.104-3.5-0.604-3.5-1.699   c0.1-0.898,0.4-1.898,0.699-2.801l2.601-7.104h13.601l2.799,7.199l0.5,1.301c0.101,0.303,0.199,0.5,0.301,0.803   c0.1,0.301,0.1,0.602,0.199,0.801c0,0.699-0.801,1.102-2.399,1.199c-0.601,0.102-1,0.102-1.2,0.102c-0.199,0-0.3,0.102-0.4,0.199   c-0.199,0.1-0.199,0.301-0.199,0.5v0.799c0,0.5,0.1,0.6,0.6,0.6h0.7l1.399-0.1h5.301c3.5,0,5.5,0.1,5.898,0.1h1.197   C271.102,121.217,271.402,121.118,271.402,120.618L271.402,120.618z M254.702,105.018h-11.4l5.6-14.5L254.702,105.018   L254.702,105.018z"/>
	<path fill="#FFFFFF" d="M339.703,120.316c0-0.602-0.104-0.799-0.604-0.799l-0.5-0.104c-1-0.101-1.896-0.396-2.801-0.799   c-1.1-0.603-1.896-1.302-4.1-3.899l-12.805-14.302l9.305-9.099c2.799-2.7,4.5-4.2,5.799-4.8c1-0.5,2.102-0.7,3.201-0.8   c0.695-0.1,0.896-0.2,0.896-0.9v-0.4c0-0.4-0.198-0.6-0.698-0.6H336.7c-0.304,0-0.804,0.1-1.5,0.1c-1.604,0.1-2.804,0.1-3.701,0.1   l-4.799-0.1h-1.9c-0.301,0-0.5,0-0.801-0.1c-0.5,0-0.699,0.2-0.699,0.8c0,0.8,0.199,1,0.9,1c1.896,0.1,2.5,0.4,2.5,1.1   c0,0.7-0.701,1.8-3.4,4.6L313,102.016l11.201,13.102c1.396,1.601,1.896,2.396,1.896,2.896c0,0.699-0.799,1.199-2.6,1.301   c-0.799,0.102-1,0.199-1,0.898c0,0.801,0.1,1,0.801,1h1c0.5,0,1.102,0,2.102-0.1c2.102-0.103,3.803-0.103,5.102-0.103   c1.301,0,2.801,0,4.701,0.103l1.696,0.1h0.804C339.501,121.217,339.703,121.118,339.703,120.316L339.703,120.316z M317.902,120.417   v-0.199c0-0.698-0.199-0.801-1.303-0.801c-1.896,0-3.602-0.601-3.896-1.299c-0.301-1.302-0.4-2.601-0.301-3.9v-23.5   c0-4.2,0.301-4.7,2.6-5h0.1c0.701-0.1,1.104-0.2,1.201-0.2c1.102-0.1,1.199-0.2,1.199-1v-0.2c0-0.5-0.1-0.7-0.699-0.7l-0.801,0.1   h-1.699c-1.801,0-3,0.1-3.6,0.1h-2.5c-0.701,0-2-0.1-3.604-0.1h-2.1l-0.3-0.1c-0.603,0-0.7,0.2-0.7,0.7v0.3c0,0.8,0.2,0.9,1.2,1   c0.397,0,0.897,0.1,1.3,0.2h0.1c2.303,0.3,2.604,0.9,2.604,5v23.4c0,2.9-0.201,4.199-0.9,4.5c-0.501,0.302-1.101,0.4-1.697,0.603   h-0.104c-0.396,0.101-0.896,0.199-1.3,0.199c-1.104,0-1.2,0.103-1.2,1v0.101c0,0.5,0.2,0.6,0.7,0.6h0.8c0.5,0,1.104-0.1,1.7-0.1   c1.8-0.103,3.001-0.103,3.601-0.103h2.5c0.9,0,2.104,0,3.604,0.103c1,0.1,1.6,0.1,2.1,0.1h0.801   C317.802,121.217,317.902,121.118,317.902,120.417L317.902,120.417z"/>
	<path fill="#FFFFFF" d="M385.203,120.618v-0.701c0-0.397-0.201-0.601-0.9-0.601c-1,0-1.896-0.198-2.801-0.602   c-0.699-0.302-1.1-0.802-1.699-2.197l-0.701-1.5l-13.299-31c-0.5-1.1-0.6-1.2-1.396-1.2h-0.699c-0.604,0-0.701,0-0.801,0.2   c-0.104,0.2-0.305,0.6-0.604,1.1l-13,30.799c-0.896,2.201-1.201,2.9-1.896,3.5c-0.199,0.301-0.5,0.5-0.805,0.602   c-0.799,0.301-1.6,0.5-2.396,0.604c-0.5,0.102-0.604,0.197-0.604,0.896s0.104,0.801,0.701,0.801h1.104   c2.195,0,3.896-0.102,4.801-0.102c0.896,0,2.5,0.102,5,0.102h1.199c0.695,0,0.896-0.197,0.896-0.898c0-0.697-0.201-1-1.201-1   c-2.396-0.102-3.5-0.602-3.5-1.697c0.104-0.898,0.4-1.898,0.701-2.803l2.604-7.102h13.598l2.801,7.199l0.5,1.301   c0.104,0.303,0.199,0.5,0.299,0.803c0.104,0.299,0.104,0.602,0.201,0.799c0,0.701-0.801,1.104-2.396,1.201   c-0.604,0.102-1,0.102-1.199,0.102c-0.201,0-0.301,0.102-0.5,0.197c-0.201,0.104-0.201,0.303-0.201,0.5v0.699   c0,0.5,0.101,0.6,0.601,0.6h0.7l1.4-0.1h5.299c3.5,0,5.5,0.1,6,0.1h1.201C385.001,121.217,385.302,121.118,385.203,120.618   L385.203,120.618z M368.501,105.018h-11.4l5.5-14.5L368.501,105.018z"/>
	<path fill="#FFFFFF" d="M460.001,100.817c0-10.5-7.799-18.2-18.5-18.2c-11.9,0-20.6,8.8-20.6,20.9   c0,11.101,7.695,18.799,18.695,18.799c11.604,0,19.805-8.299,20.201-20.601C459.902,101.417,460.001,101.118,460.001,100.817   L460.001,100.817z M453.902,103.417c0,9.301-5.4,15.801-13.199,15.801c-7.801,0-13.701-7.6-13.701-17.801   c0-9.5,5.201-15.799,13.1-15.799C448.001,85.617,453.902,93.217,453.902,103.417L453.902,103.417z"/>
	<path fill="#FFFFFF" d="M293.301,120.417v-0.5c-0.1-0.299-0.199-0.397-0.699-0.397l-1.396-0.199   c-2.604-0.301-3.2-0.801-3.303-3.198l-0.102-1.802V90.717c0-0.1,0.102-0.7,0.102-1.9c0-0.4,0-0.7,0.103-1.1c0-0.6,0.3-1.1,0.7-1.5   c1.1-0.5,2.3-0.8,3.5-0.8c0.6,0,0.697-0.2,0.697-0.8v-0.2c0-0.5-0.102-0.7-0.697-0.7l-1,0.1l-2.5,0.1h-3.7l-4.7-0.1h-2.5   c-0.1,0-0.3-0.1-0.396-0.1c-0.5,0-0.604,0.1-0.604,0.5l-0.1,0.2v0.2c0,0.8,0.1,0.8,0.6,0.9c1.2,0,2.5,0.3,3.604,0.7   c0.698,0.6,0.896,1.3,0.896,4.5v23.4c0,2.898-0.197,4-0.896,4.5c-0.7,0.5-1.4,0.6-3.5,0.699c-0.604,0.1-0.7,0.199-0.7,1v0.301   c0,0.5,0.2,0.6,0.7,0.6h0.8c0.602,0,1.2-0.1,1.7-0.1c1.896-0.102,3-0.102,3.6-0.102h2.601c0.803,0,2,0,3.604,0.102   c0.8,0.1,1.5,0.1,1.896,0.1h0.899C293.202,121.217,293.402,121.118,293.301,120.417L293.301,120.417z"/>
	<path fill="#FFFFFF" d="M237.202,84.517c0-0.6-0.2-0.8-0.7-0.8c-0.101,0-0.3,0.1-0.601,0.1h-1.6l-3.6,0.1h-3.4   c-1.1,0-1.9-0.1-2.199-0.1c-0.301,0-0.601-0.1-0.801-0.1c-0.5,0-0.699,0.3-0.699,1c0,0.4,0.1,0.7,0.299,0.8   c0.201,0.1,0.301,0.1,1.4,0.2c2.2,0.2,3,0.7,3,1.8c0,0.8-0.199,1.6-0.4,2.4l-0.5,1.5l-7.1,21.899l-7.5-21.699l-0.6-1.7   c-0.301-0.8-0.5-1.6-0.6-2.4c0-1.2,0.799-1.6,3.199-1.7l1.1-0.1c0.601-0.1,0.801-0.2,0.801-0.9c0-0.8-0.2-1-1.301-1   c-0.299,0-1.1,0.1-2.899,0.1h-8c-1.7,0-2.2,0-3-0.1c-0.2,0-0.3-0.1-0.399-0.1c-0.601,0-0.701,0.2-0.701,0.9c0,0.9,0.101,1,0.801,1   c2.1,0.2,2.8,0.5,3.4,1.1c0.699,0.9,1.1,2,1.399,3.1l-7.7,23.3l-7.8-22.3l-0.4-1.1c-0.3-0.7-0.5-1.4-0.6-2.2   c0-1.2,0.7-1.6,3.601-1.8l0.699-0.1c0.6-0.1,0.7-0.2,0.7-0.9c0-0.7-0.2-1.1-0.8-1l-0.9,0.1l-2.3,0.1h-8.8l-2.4-0.1   c-0.3,0-0.6-0.1-0.7-0.1c-0.7,0-0.8,0.2-0.8,1.1c0,0.5,0,0.6,0.2,0.7c0.3,0.1,0.6,0.2,0.9,0.2c2,0.2,2.8,0.5,3.3,1.2   c0.5,0.6,0.8,1.3,1.1,2c0.4,1.1,0.8,1.8,1,2.4l10.801,29.201c0.6,1.602,0.699,1.698,1.199,1.698h1.2c0.5,0,0.7-0.198,1-1l9.101-27   l9.399,26.399c0.399,1.301,0.7,1.602,1.399,1.602h1c0.5,0,0.601-0.102,1-0.898l0.201-0.699l10.699-29.2l1-2.6   c0.5-1.3,0.6-1.6,1.1-2c0.701-0.6,1.601-1,2.5-1.1c1.101-0.2,1.101-0.2,1.201-0.3C237.102,85.017,237.202,84.817,237.202,84.517   L237.202,84.517z"/>
	<path fill="#FFFFFF" d="M418.203,84.317c0.1-0.5-0.201-0.7-0.701-0.7h-1.199l-1.801,0.1c-0.4,0-1.799,0.1-4.1,0.1h-9l-7.805-0.1   l-3.5-0.1H386.5c-0.699,0-0.799,0-0.9,0.3c-0.195,0.6-0.299,1.1-0.299,1.7l-0.5,5c0,0.3-0.1,0.7-0.1,1.1v0.1   c0,0.3,0.5,0.6,1.396,0.6c0.305,0,0.4-0.1,0.5-0.4c0.305-2,1.4-3.8,3.201-4.8c1.4-0.6,3-0.8,8.104-0.8h0.801v27.8   c0,3.102-0.201,4-1,4.4c-1.201,0.5-2.5,0.799-3.801,0.799c-1.104,0.102-1.199,0.201-1.199,0.701v0.299   c0,0.602,0.199,0.701,0.6,0.701h0.699c0.6,0,1.5,0,2.801-0.102c2.102-0.102,3.799-0.102,5.102-0.102l5.801,0.104   c1.1,0,1.699,0.102,1.896,0.102h0.805c0.801,0,1-0.102,1-0.701v-0.6c0-0.4-0.199-0.4-1.604-0.604c-1.301,0-2.5-0.197-3.801-0.6   c-1.104-0.5-1.299-1.303-1.299-4.602V86.415h2.396c1.701,0,3.701,0.1,4.805,0.2c0.695,0.1,1.5,0.3,2.1,0.6   c1.1,0.6,1.801,1.9,2.1,4.2c0.104,0.8,0.201,1,1,1c0.805,0,0.9-0.1,1-0.7l0.104-0.9v-1.3l0.199-3.8v-0.6l0.1-0.7h-0.299v-0.098   H418.203z"/>
</g>
</svg>